<svg width="305" height="305" viewBox="310 110 305 305" fill="none" xmlns="http://www.w3.org/2000/svg">
  <path d="M324.645 128.243C326.245 128.816 338.911 139.108 341.313 140.989C380.166 171.663 418.416 203.092 456.042 235.259C455.606 249.463 455.993 265.963 455.989 280.356L456.002 370.545C456.004 383.669 456.336 398.162 455.879 411.129L455.518 411.048C453.001 407.401 448.515 398.95 446.072 394.723L426.176 360.435L426.221 264.719C408.136 241.715 389.974 217.123 372.396 193.687C361.978 179.871 351.689 165.959 341.53 151.952C335.908 144.212 329.956 136.162 324.645 128.243Z" fill="#FACC15"/>
  <path d="M599.898 128.243C598.299 128.816 585.633 139.108 583.23 140.989C544.377 171.663 506.127 203.092 468.501 235.259C468.937 249.463 468.55 265.963 468.554 280.356L468.541 370.545C468.539 383.669 468.207 398.162 468.665 411.129L469.025 411.048C471.542 407.401 476.028 398.95 478.471 394.723L498.368 360.435L498.322 264.719C516.407 241.715 534.569 217.123 552.147 193.687C562.565 179.871 572.854 165.959 583.013 151.952C588.635 144.212 594.587 136.162 599.898 128.243Z" fill="#FACC15"/>
</svg>
