<svg version="1.1" id="Layer_1" xmlns="http://www.w3.org/2000/svg" xmlns:xlink="http://www.w3.org/1999/xlink" x="0px" y="0px"
	 width="100%" viewBox="0 0 512 512" enable-background="new 0 0 512 512" xml:space="preserve">
<path fill="#0D1117" opacity="1.000000" stroke="none" 
	d="
M1.000004,422.000000 
	C1.000000,312.311310 1.000000,202.622650 1.344948,92.346588 
	C2.183226,90.591988 2.858928,89.467323 3.142778,88.251213 
	C8.105383,66.989571 18.163630,48.404079 33.594963,33.076702 
	C48.768696,18.005188 67.097252,8.152700 87.982246,3.172801 
	C89.412849,2.831680 90.664909,1.741711 92.000000,1.000001 
	C201.688675,1.000000 311.377350,1.000000 421.653412,1.344952 
	C423.408051,2.183185 424.533020,2.854597 425.748871,3.143274 
	C446.968201,8.181396 465.588867,18.110937 480.945251,33.571491 
	C496.046112,48.774796 505.792450,67.126778 510.826782,87.982025 
	C511.172211,89.412842 512.258362,90.664841 513.000000,92.000000 
	C513.000000,201.688675 513.000000,311.377350 512.655029,421.653381 
	C511.816772,423.407928 511.145355,424.532837 510.856689,425.748627 
	C505.819214,446.967438 495.927704,465.627960 480.419098,480.932098 
	C465.194641,495.955811 446.914398,505.866211 426.017853,510.827911 
	C424.587311,511.167572 423.335144,512.258484 422.000000,513.000000 
	C312.311310,513.000000 202.622650,513.000000 92.346573,512.655029 
	C90.592148,511.816925 89.467850,511.137970 88.251724,510.858124 
	C66.956093,505.957977 48.405628,495.774445 33.098820,480.386108 
	C18.041162,465.248230 8.083910,446.940796 3.171636,426.017059 
	C2.835884,424.586914 1.741551,423.334869 1.000004,422.000000 
M286.480835,188.887711 
	C294.637634,182.032318 302.994629,175.399567 310.912323,168.278305 
	C331.677185,149.602173 350.366364,129.095139 364.899628,105.084694 
	C369.371490,97.696739 367.499634,89.220306 360.721497,84.907219 
	C353.858643,80.540215 345.240723,82.316566 340.711456,89.634293 
	C321.842407,120.120216 296.365173,144.336426 267.796234,166.186035 
	C260.337219,163.341751 252.900650,163.761734 244.876404,165.912094 
	C217.254395,143.911743 191.956161,119.769524 173.027664,89.532707 
	C171.150330,86.533836 167.065826,84.151443 163.529938,83.129944 
	C157.788605,81.471321 152.609940,83.819038 149.217087,88.851898 
	C145.474335,94.403831 145.955032,100.098534 149.443161,105.712440 
	C170.037720,138.857910 197.602005,165.427475 228.196838,190.076782 
	C227.575699,202.296631 232.609314,211.588104 242.709457,219.256180 
	C242.697235,284.705750 242.664658,350.155334 242.695221,415.604919 
	C242.699677,425.148163 248.469757,431.308868 257.016937,431.299500 
	C265.389038,431.290344 271.288544,425.226807 271.292725,416.069885 
	C271.322662,350.121246 271.263855,284.172638 271.694702,217.879211 
	C282.047028,211.108551 286.442688,201.393585 286.480835,188.887711 
z"/>
<path fill="#000000" opacity="1.000000" stroke="none" 
	d="
M1.000004,422.468658 
	C1.741551,423.334869 2.835884,424.586914 3.171636,426.017059 
	C8.083910,446.940796 18.041162,465.248230 33.098820,480.386108 
	C48.405628,495.774445 66.956093,505.957977 88.251724,510.858124 
	C89.467850,511.137970 90.592148,511.816925 91.879593,512.655029 
	C61.739750,513.000000 31.479504,513.000000 1.000000,513.000000 
	C1.000000,482.979462 1.000000,452.958374 1.000004,422.468658 
z"/>
<path fill="#000000" opacity="1.000000" stroke="none" 
	d="
M91.531342,1.000001 
	C90.664909,1.741711 89.412849,2.831680 87.982246,3.172801 
	C67.097252,8.152700 48.768696,18.005188 33.594963,33.076702 
	C18.163630,48.404079 8.105383,66.989571 3.142778,88.251213 
	C2.858928,89.467323 2.183226,90.591988 1.344948,91.879608 
	C1.000000,61.739750 1.000000,31.479496 1.000000,1.000000 
	C31.020538,1.000000 61.041611,1.000000 91.531342,1.000001 
z"/>
<path fill="#000000" opacity="1.000000" stroke="none" 
	d="
M422.468658,513.000000 
	C423.335144,512.258484 424.587311,511.167572 426.017853,510.827911 
	C446.914398,505.866211 465.194641,495.955811 480.419098,480.932098 
	C495.927704,465.627960 505.819214,446.967438 510.856689,425.748627 
	C511.145355,424.532837 511.816772,423.407928 512.655029,422.120361 
	C513.000000,452.260254 513.000000,482.520508 513.000000,513.000000 
	C482.979462,513.000000 452.958374,513.000000 422.468658,513.000000 
z"/>
<path fill="#000000" opacity="1.000000" stroke="none" 
	d="
M513.000000,91.531342 
	C512.258362,90.664841 511.172211,89.412842 510.826782,87.982025 
	C505.792450,67.126778 496.046112,48.774796 480.945251,33.571491 
	C465.588867,18.110937 446.968201,8.181396 425.748871,3.143274 
	C424.533020,2.854597 423.408051,2.183185 422.120392,1.344952 
	C452.260254,1.000000 482.520508,1.000000 513.000000,1.000000 
	C513.000000,31.020538 513.000000,61.041611 513.000000,91.531342 
z"/>
<path fill="#00FFCB" opacity="1.000000" stroke="none" 
	d="
M271.233246,218.223999 
	C271.263855,284.172638 271.322662,350.121246 271.292725,416.069885 
	C271.288544,425.226807 265.389038,431.290344 257.016937,431.299500 
	C248.469757,431.308868 242.699677,425.148163 242.695221,415.604919 
	C242.664658,350.155334 242.697235,284.705750 243.137115,218.863129 
	C252.830399,223.201614 262.049347,222.683563 271.233246,218.223999 
z"/>
<path fill="#00FDC9" opacity="1.000000" stroke="none" 
	d="
M228.125259,189.212601 
	C197.602005,165.427475 170.037720,138.857910 149.443161,105.712440 
	C145.955032,100.098534 145.474335,94.403831 149.217087,88.851898 
	C152.609940,83.819038 157.788605,81.471321 163.529938,83.129944 
	C167.065826,84.151443 171.150330,86.533836 173.027664,89.532707 
	C191.956161,119.769524 217.254395,143.911743 244.919388,166.359558 
	C235.464478,171.355713 230.403549,179.238617 228.125259,189.212601 
z"/>
<path fill="#00FDC9" opacity="1.000000" stroke="none" 
	d="
M268.529236,166.357697 
	C296.365173,144.336426 321.842407,120.120216 340.711456,89.634293 
	C345.240723,82.316566 353.858643,80.540215 360.721497,84.907219 
	C367.499634,89.220306 369.371490,97.696739 364.899628,105.084694 
	C350.366364,129.095139 331.677185,149.602173 310.912323,168.278305 
	C302.994629,175.399567 294.637634,182.032318 285.961365,188.736160 
	C283.701263,178.210449 277.619781,171.139267 268.529236,166.357697 
z"/>
<path fill="#E6463C" opacity="1.000000" stroke="none" 
	d="
M268.162720,166.271866 
	C277.619781,171.139267 283.701263,178.210449 285.651581,188.901566 
	C286.442688,201.393585 282.047028,211.108551 271.463989,218.051605 
	C262.049347,222.683563 252.830399,223.201614 243.168762,218.346558 
	C232.609314,211.588104 227.575699,202.296631 228.161041,189.644684 
	C230.403549,179.238617 235.464478,171.355713 245.220642,166.573242 
	C252.900650,163.761734 260.337219,163.341751 268.162720,166.271866 
z"/>
</svg>