<svg width="1584" height="396" viewBox="0 0 1584 396" fill="none" xmlns="http://www.w3.org/2000/svg">
  <rect width="1584" height="396" fill="#0D1117"/>
  <g transform="translate(1329,67) rotate(-57,20,25) scale(0.081)" opacity="0.08">
    <path fill="#00FFCB" d="M271.233,218.224 C271.264,284.173 271.323,350.121 271.293,416.07 C271.289,425.227 265.389,431.29 257.017,431.3 C248.47,431.309 242.7,425.148 242.695,415.605 C242.665,350.155 242.697,284.706 243.137,218.863 C252.83,223.202 262.049,222.684 271.233,218.224z"/><path fill="#00FFCB" d="M228.125,189.213 C197.602,165.427 170.038,138.858 149.443,105.712 C145.955,100.099 145.474,94.404 149.217,88.852 C152.61,83.819 157.789,81.471 163.53,83.13 C167.066,84.151 171.15,86.534 173.028,89.533 C191.956,119.77 217.254,143.912 244.919,166.36 C235.464,171.356 230.404,179.239 228.125,189.213z"/><path fill="#00FFCB" d="M268.529,166.358 C296.365,144.336 321.842,120.12 340.711,89.634 C345.241,82.317 353.859,80.54 360.721,84.907 C367.5,89.22 369.371,97.697 364.9,105.085 C350.366,129.095 331.677,149.602 310.912,168.278 C302.995,175.4 294.638,182.032 285.961,188.736 C283.701,178.21 277.62,171.139 268.529,166.358z"/><path fill="#E6463C" d="M268.163,166.272 C277.62,171.139 283.701,178.21 285.652,188.902 C286.443,201.394 282.047,211.109 271.464,218.052 C262.049,222.684 252.83,223.202 243.169,218.347 C232.609,211.588 227.576,202.297 228.161,189.645 C230.404,179.239 235.464,171.356 245.221,166.573 C252.901,163.762 260.337,163.342 268.163,166.272z"/>
  </g>
  <g transform="translate(305,62) rotate(26,20,25) scale(0.081)" opacity="0.10">
    <path fill="#00FFCB" d="M271.233,218.224 C271.264,284.173 271.323,350.121 271.293,416.07 C271.289,425.227 265.389,431.29 257.017,431.3 C248.47,431.309 242.7,425.148 242.695,415.605 C242.665,350.155 242.697,284.706 243.137,218.863 C252.83,223.202 262.049,222.684 271.233,218.224z"/><path fill="#00FFCB" d="M228.125,189.213 C197.602,165.427 170.038,138.858 149.443,105.712 C145.955,100.099 145.474,94.404 149.217,88.852 C152.61,83.819 157.789,81.471 163.53,83.13 C167.066,84.151 171.15,86.534 173.028,89.533 C191.956,119.77 217.254,143.912 244.919,166.36 C235.464,171.356 230.404,179.239 228.125,189.213z"/><path fill="#00FFCB" d="M268.529,166.358 C296.365,144.336 321.842,120.12 340.711,89.634 C345.241,82.317 353.859,80.54 360.721,84.907 C367.5,89.22 369.371,97.697 364.9,105.085 C350.366,129.095 331.677,149.602 310.912,168.278 C302.995,175.4 294.638,182.032 285.961,188.736 C283.701,178.21 277.62,171.139 268.529,166.358z"/><path fill="#E6463C" d="M268.163,166.272 C277.62,171.139 283.701,178.21 285.652,188.902 C286.443,201.394 282.047,211.109 271.464,218.052 C262.049,222.684 252.83,223.202 243.169,218.347 C232.609,211.588 227.576,202.297 228.161,189.645 C230.404,179.239 235.464,171.356 245.221,166.573 C252.901,163.762 260.337,163.342 268.163,166.272z"/>
  </g>
  <g transform="translate(1229,226) rotate(-56,20,25) scale(0.056)" opacity="0.08">
    <path fill="#00FFCB" d="M271.233,218.224 C271.264,284.173 271.323,350.121 271.293,416.07 C271.289,425.227 265.389,431.29 257.017,431.3 C248.47,431.309 242.7,425.148 242.695,415.605 C242.665,350.155 242.697,284.706 243.137,218.863 C252.83,223.202 262.049,222.684 271.233,218.224z"/><path fill="#00FFCB" d="M228.125,189.213 C197.602,165.427 170.038,138.858 149.443,105.712 C145.955,100.099 145.474,94.404 149.217,88.852 C152.61,83.819 157.789,81.471 163.53,83.13 C167.066,84.151 171.15,86.534 173.028,89.533 C191.956,119.77 217.254,143.912 244.919,166.36 C235.464,171.356 230.404,179.239 228.125,189.213z"/><path fill="#00FFCB" d="M268.529,166.358 C296.365,144.336 321.842,120.12 340.711,89.634 C345.241,82.317 353.859,80.54 360.721,84.907 C367.5,89.22 369.371,97.697 364.9,105.085 C350.366,129.095 331.677,149.602 310.912,168.278 C302.995,175.4 294.638,182.032 285.961,188.736 C283.701,178.21 277.62,171.139 268.529,166.358z"/><path fill="#E6463C" d="M268.163,166.272 C277.62,171.139 283.701,178.21 285.652,188.902 C286.443,201.394 282.047,211.109 271.464,218.052 C262.049,222.684 252.83,223.202 243.169,218.347 C232.609,211.588 227.576,202.297 228.161,189.645 C230.404,179.239 235.464,171.356 245.221,166.573 C252.901,163.762 260.337,163.342 268.163,166.272z"/>
  </g>
  <g transform="translate(1054,318) rotate(-57,20,25) scale(0.075)" opacity="0.12">
    <path fill="#00FFCB" d="M271.233,218.224 C271.264,284.173 271.323,350.121 271.293,416.07 C271.289,425.227 265.389,431.29 257.017,431.3 C248.47,431.309 242.7,425.148 242.695,415.605 C242.665,350.155 242.697,284.706 243.137,218.863 C252.83,223.202 262.049,222.684 271.233,218.224z"/><path fill="#00FFCB" d="M228.125,189.213 C197.602,165.427 170.038,138.858 149.443,105.712 C145.955,100.099 145.474,94.404 149.217,88.852 C152.61,83.819 157.789,81.471 163.53,83.13 C167.066,84.151 171.15,86.534 173.028,89.533 C191.956,119.77 217.254,143.912 244.919,166.36 C235.464,171.356 230.404,179.239 228.125,189.213z"/><path fill="#00FFCB" d="M268.529,166.358 C296.365,144.336 321.842,120.12 340.711,89.634 C345.241,82.317 353.859,80.54 360.721,84.907 C367.5,89.22 369.371,97.697 364.9,105.085 C350.366,129.095 331.677,149.602 310.912,168.278 C302.995,175.4 294.638,182.032 285.961,188.736 C283.701,178.21 277.62,171.139 268.529,166.358z"/><path fill="#E6463C" d="M268.163,166.272 C277.62,171.139 283.701,178.21 285.652,188.902 C286.443,201.394 282.047,211.109 271.464,218.052 C262.049,222.684 252.83,223.202 243.169,218.347 C232.609,211.588 227.576,202.297 228.161,189.645 C230.404,179.239 235.464,171.356 245.221,166.573 C252.901,163.762 260.337,163.342 268.163,166.272z"/>
  </g>
  <g transform="translate(1456,289) rotate(-7,20,25) scale(0.063)" opacity="0.11">
    <path fill="#00FFCB" d="M271.233,218.224 C271.264,284.173 271.323,350.121 271.293,416.07 C271.289,425.227 265.389,431.29 257.017,431.3 C248.47,431.309 242.7,425.148 242.695,415.605 C242.665,350.155 242.697,284.706 243.137,218.863 C252.83,223.202 262.049,222.684 271.233,218.224z"/><path fill="#00FFCB" d="M228.125,189.213 C197.602,165.427 170.038,138.858 149.443,105.712 C145.955,100.099 145.474,94.404 149.217,88.852 C152.61,83.819 157.789,81.471 163.53,83.13 C167.066,84.151 171.15,86.534 173.028,89.533 C191.956,119.77 217.254,143.912 244.919,166.36 C235.464,171.356 230.404,179.239 228.125,189.213z"/><path fill="#00FFCB" d="M268.529,166.358 C296.365,144.336 321.842,120.12 340.711,89.634 C345.241,82.317 353.859,80.54 360.721,84.907 C367.5,89.22 369.371,97.697 364.9,105.085 C350.366,129.095 331.677,149.602 310.912,168.278 C302.995,175.4 294.638,182.032 285.961,188.736 C283.701,178.21 277.62,171.139 268.529,166.358z"/><path fill="#E6463C" d="M268.163,166.272 C277.62,171.139 283.701,178.21 285.652,188.902 C286.443,201.394 282.047,211.109 271.464,218.052 C262.049,222.684 252.83,223.202 243.169,218.347 C232.609,211.588 227.576,202.297 228.161,189.645 C230.404,179.239 235.464,171.356 245.221,166.573 C252.901,163.762 260.337,163.342 268.163,166.272z"/>
  </g>
  <g transform="translate(33,91) rotate(29,20,25) scale(0.070)" opacity="0.08">
    <path fill="#00FFCB" d="M271.233,218.224 C271.264,284.173 271.323,350.121 271.293,416.07 C271.289,425.227 265.389,431.29 257.017,431.3 C248.47,431.309 242.7,425.148 242.695,415.605 C242.665,350.155 242.697,284.706 243.137,218.863 C252.83,223.202 262.049,222.684 271.233,218.224z"/><path fill="#00FFCB" d="M228.125,189.213 C197.602,165.427 170.038,138.858 149.443,105.712 C145.955,100.099 145.474,94.404 149.217,88.852 C152.61,83.819 157.789,81.471 163.53,83.13 C167.066,84.151 171.15,86.534 173.028,89.533 C191.956,119.77 217.254,143.912 244.919,166.36 C235.464,171.356 230.404,179.239 228.125,189.213z"/><path fill="#00FFCB" d="M268.529,166.358 C296.365,144.336 321.842,120.12 340.711,89.634 C345.241,82.317 353.859,80.54 360.721,84.907 C367.5,89.22 369.371,97.697 364.9,105.085 C350.366,129.095 331.677,149.602 310.912,168.278 C302.995,175.4 294.638,182.032 285.961,188.736 C283.701,178.21 277.62,171.139 268.529,166.358z"/><path fill="#E6463C" d="M268.163,166.272 C277.62,171.139 283.701,178.21 285.652,188.902 C286.443,201.394 282.047,211.109 271.464,218.052 C262.049,222.684 252.83,223.202 243.169,218.347 C232.609,211.588 227.576,202.297 228.161,189.645 C230.404,179.239 235.464,171.356 245.221,166.573 C252.901,163.762 260.337,163.342 268.163,166.272z"/>
  </g>
  <g transform="translate(460,182) rotate(-47,20,25) scale(0.058)" opacity="0.07">
    <path fill="#00FFCB" d="M271.233,218.224 C271.264,284.173 271.323,350.121 271.293,416.07 C271.289,425.227 265.389,431.29 257.017,431.3 C248.47,431.309 242.7,425.148 242.695,415.605 C242.665,350.155 242.697,284.706 243.137,218.863 C252.83,223.202 262.049,222.684 271.233,218.224z"/><path fill="#00FFCB" d="M228.125,189.213 C197.602,165.427 170.038,138.858 149.443,105.712 C145.955,100.099 145.474,94.404 149.217,88.852 C152.61,83.819 157.789,81.471 163.53,83.13 C167.066,84.151 171.15,86.534 173.028,89.533 C191.956,119.77 217.254,143.912 244.919,166.36 C235.464,171.356 230.404,179.239 228.125,189.213z"/><path fill="#00FFCB" d="M268.529,166.358 C296.365,144.336 321.842,120.12 340.711,89.634 C345.241,82.317 353.859,80.54 360.721,84.907 C367.5,89.22 369.371,97.697 364.9,105.085 C350.366,129.095 331.677,149.602 310.912,168.278 C302.995,175.4 294.638,182.032 285.961,188.736 C283.701,178.21 277.62,171.139 268.529,166.358z"/><path fill="#E6463C" d="M268.163,166.272 C277.62,171.139 283.701,178.21 285.652,188.902 C286.443,201.394 282.047,211.109 271.464,218.052 C262.049,222.684 252.83,223.202 243.169,218.347 C232.609,211.588 227.576,202.297 228.161,189.645 C230.404,179.239 235.464,171.356 245.221,166.573 C252.901,163.762 260.337,163.342 268.163,166.272z"/>
  </g>
  <g transform="translate(724,319) rotate(-27,20,25) scale(0.083)" opacity="0.12">
    <path fill="#00FFCB" d="M271.233,218.224 C271.264,284.173 271.323,350.121 271.293,416.07 C271.289,425.227 265.389,431.29 257.017,431.3 C248.47,431.309 242.7,425.148 242.695,415.605 C242.665,350.155 242.697,284.706 243.137,218.863 C252.83,223.202 262.049,222.684 271.233,218.224z"/><path fill="#00FFCB" d="M228.125,189.213 C197.602,165.427 170.038,138.858 149.443,105.712 C145.955,100.099 145.474,94.404 149.217,88.852 C152.61,83.819 157.789,81.471 163.53,83.13 C167.066,84.151 171.15,86.534 173.028,89.533 C191.956,119.77 217.254,143.912 244.919,166.36 C235.464,171.356 230.404,179.239 228.125,189.213z"/><path fill="#00FFCB" d="M268.529,166.358 C296.365,144.336 321.842,120.12 340.711,89.634 C345.241,82.317 353.859,80.54 360.721,84.907 C367.5,89.22 369.371,97.697 364.9,105.085 C350.366,129.095 331.677,149.602 310.912,168.278 C302.995,175.4 294.638,182.032 285.961,188.736 C283.701,178.21 277.62,171.139 268.529,166.358z"/><path fill="#E6463C" d="M268.163,166.272 C277.62,171.139 283.701,178.21 285.652,188.902 C286.443,201.394 282.047,211.109 271.464,218.052 C262.049,222.684 252.83,223.202 243.169,218.347 C232.609,211.588 227.576,202.297 228.161,189.645 C230.404,179.239 235.464,171.356 245.221,166.573 C252.901,163.762 260.337,163.342 268.163,166.272z"/>
  </g>
  <g transform="translate(1118,73) rotate(58,20,25) scale(0.068)" opacity="0.10">
    <path fill="#00FFCB" d="M271.233,218.224 C271.264,284.173 271.323,350.121 271.293,416.07 C271.289,425.227 265.389,431.29 257.017,431.3 C248.47,431.309 242.7,425.148 242.695,415.605 C242.665,350.155 242.697,284.706 243.137,218.863 C252.83,223.202 262.049,222.684 271.233,218.224z"/><path fill="#00FFCB" d="M228.125,189.213 C197.602,165.427 170.038,138.858 149.443,105.712 C145.955,100.099 145.474,94.404 149.217,88.852 C152.61,83.819 157.789,81.471 163.53,83.13 C167.066,84.151 171.15,86.534 173.028,89.533 C191.956,119.77 217.254,143.912 244.919,166.36 C235.464,171.356 230.404,179.239 228.125,189.213z"/><path fill="#00FFCB" d="M268.529,166.358 C296.365,144.336 321.842,120.12 340.711,89.634 C345.241,82.317 353.859,80.54 360.721,84.907 C367.5,89.22 369.371,97.697 364.9,105.085 C350.366,129.095 331.677,149.602 310.912,168.278 C302.995,175.4 294.638,182.032 285.961,188.736 C283.701,178.21 277.62,171.139 268.529,166.358z"/><path fill="#E6463C" d="M268.163,166.272 C277.62,171.139 283.701,178.21 285.652,188.902 C286.443,201.394 282.047,211.109 271.464,218.052 C262.049,222.684 252.83,223.202 243.169,218.347 C232.609,211.588 227.576,202.297 228.161,189.645 C230.404,179.239 235.464,171.356 245.221,166.573 C252.901,163.762 260.337,163.342 268.163,166.272z"/>
  </g>
  <g transform="translate(1307,326) rotate(53,20,25) scale(0.085)" opacity="0.11">
    <path fill="#00FFCB" d="M271.233,218.224 C271.264,284.173 271.323,350.121 271.293,416.07 C271.289,425.227 265.389,431.29 257.017,431.3 C248.47,431.309 242.7,425.148 242.695,415.605 C242.665,350.155 242.697,284.706 243.137,218.863 C252.83,223.202 262.049,222.684 271.233,218.224z"/><path fill="#00FFCB" d="M228.125,189.213 C197.602,165.427 170.038,138.858 149.443,105.712 C145.955,100.099 145.474,94.404 149.217,88.852 C152.61,83.819 157.789,81.471 163.53,83.13 C167.066,84.151 171.15,86.534 173.028,89.533 C191.956,119.77 217.254,143.912 244.919,166.36 C235.464,171.356 230.404,179.239 228.125,189.213z"/><path fill="#00FFCB" d="M268.529,166.358 C296.365,144.336 321.842,120.12 340.711,89.634 C345.241,82.317 353.859,80.54 360.721,84.907 C367.5,89.22 369.371,97.697 364.9,105.085 C350.366,129.095 331.677,149.602 310.912,168.278 C302.995,175.4 294.638,182.032 285.961,188.736 C283.701,178.21 277.62,171.139 268.529,166.358z"/><path fill="#E6463C" d="M268.163,166.272 C277.62,171.139 283.701,178.21 285.652,188.902 C286.443,201.394 282.047,211.109 271.464,218.052 C262.049,222.684 252.83,223.202 243.169,218.347 C232.609,211.588 227.576,202.297 228.161,189.645 C230.404,179.239 235.464,171.356 245.221,166.573 C252.901,163.762 260.337,163.342 268.163,166.272z"/>
  </g>
  <g transform="translate(1462,45) rotate(-55,20,25) scale(0.078)" opacity="0.12">
    <path fill="#00FFCB" d="M271.233,218.224 C271.264,284.173 271.323,350.121 271.293,416.07 C271.289,425.227 265.389,431.29 257.017,431.3 C248.47,431.309 242.7,425.148 242.695,415.605 C242.665,350.155 242.697,284.706 243.137,218.863 C252.83,223.202 262.049,222.684 271.233,218.224z"/><path fill="#00FFCB" d="M228.125,189.213 C197.602,165.427 170.038,138.858 149.443,105.712 C145.955,100.099 145.474,94.404 149.217,88.852 C152.61,83.819 157.789,81.471 163.53,83.13 C167.066,84.151 171.15,86.534 173.028,89.533 C191.956,119.77 217.254,143.912 244.919,166.36 C235.464,171.356 230.404,179.239 228.125,189.213z"/><path fill="#00FFCB" d="M268.529,166.358 C296.365,144.336 321.842,120.12 340.711,89.634 C345.241,82.317 353.859,80.54 360.721,84.907 C367.5,89.22 369.371,97.697 364.9,105.085 C350.366,129.095 331.677,149.602 310.912,168.278 C302.995,175.4 294.638,182.032 285.961,188.736 C283.701,178.21 277.62,171.139 268.529,166.358z"/><path fill="#E6463C" d="M268.163,166.272 C277.62,171.139 283.701,178.21 285.652,188.902 C286.443,201.394 282.047,211.109 271.464,218.052 C262.049,222.684 252.83,223.202 243.169,218.347 C232.609,211.588 227.576,202.297 228.161,189.645 C230.404,179.239 235.464,171.356 245.221,166.573 C252.901,163.762 260.337,163.342 268.163,166.272z"/>
  </g>
  <g transform="translate(183,129) rotate(50,20,25) scale(0.059)" opacity="0.08">
    <path fill="#00FFCB" d="M271.233,218.224 C271.264,284.173 271.323,350.121 271.293,416.07 C271.289,425.227 265.389,431.29 257.017,431.3 C248.47,431.309 242.7,425.148 242.695,415.605 C242.665,350.155 242.697,284.706 243.137,218.863 C252.83,223.202 262.049,222.684 271.233,218.224z"/><path fill="#00FFCB" d="M228.125,189.213 C197.602,165.427 170.038,138.858 149.443,105.712 C145.955,100.099 145.474,94.404 149.217,88.852 C152.61,83.819 157.789,81.471 163.53,83.13 C167.066,84.151 171.15,86.534 173.028,89.533 C191.956,119.77 217.254,143.912 244.919,166.36 C235.464,171.356 230.404,179.239 228.125,189.213z"/><path fill="#00FFCB" d="M268.529,166.358 C296.365,144.336 321.842,120.12 340.711,89.634 C345.241,82.317 353.859,80.54 360.721,84.907 C367.5,89.22 369.371,97.697 364.9,105.085 C350.366,129.095 331.677,149.602 310.912,168.278 C302.995,175.4 294.638,182.032 285.961,188.736 C283.701,178.21 277.62,171.139 268.529,166.358z"/><path fill="#E6463C" d="M268.163,166.272 C277.62,171.139 283.701,178.21 285.652,188.902 C286.443,201.394 282.047,211.109 271.464,218.052 C262.049,222.684 252.83,223.202 243.169,218.347 C232.609,211.588 227.576,202.297 228.161,189.645 C230.404,179.239 235.464,171.356 245.221,166.573 C252.901,163.762 260.337,163.342 268.163,166.272z"/>
  </g>
  <g transform="translate(1321,196) rotate(-40,20,25) scale(0.068)" opacity="0.08">
    <path fill="#00FFCB" d="M271.233,218.224 C271.264,284.173 271.323,350.121 271.293,416.07 C271.289,425.227 265.389,431.29 257.017,431.3 C248.47,431.309 242.7,425.148 242.695,415.605 C242.665,350.155 242.697,284.706 243.137,218.863 C252.83,223.202 262.049,222.684 271.233,218.224z"/><path fill="#00FFCB" d="M228.125,189.213 C197.602,165.427 170.038,138.858 149.443,105.712 C145.955,100.099 145.474,94.404 149.217,88.852 C152.61,83.819 157.789,81.471 163.53,83.13 C167.066,84.151 171.15,86.534 173.028,89.533 C191.956,119.77 217.254,143.912 244.919,166.36 C235.464,171.356 230.404,179.239 228.125,189.213z"/><path fill="#00FFCB" d="M268.529,166.358 C296.365,144.336 321.842,120.12 340.711,89.634 C345.241,82.317 353.859,80.54 360.721,84.907 C367.5,89.22 369.371,97.697 364.9,105.085 C350.366,129.095 331.677,149.602 310.912,168.278 C302.995,175.4 294.638,182.032 285.961,188.736 C283.701,178.21 277.62,171.139 268.529,166.358z"/><path fill="#E6463C" d="M268.163,166.272 C277.62,171.139 283.701,178.21 285.652,188.902 C286.443,201.394 282.047,211.109 271.464,218.052 C262.049,222.684 252.83,223.202 243.169,218.347 C232.609,211.588 227.576,202.297 228.161,189.645 C230.404,179.239 235.464,171.356 245.221,166.573 C252.901,163.762 260.337,163.342 268.163,166.272z"/>
  </g>
  <g transform="translate(566,341) rotate(-51,20,25) scale(0.076)" opacity="0.07">
    <path fill="#00FFCB" d="M271.233,218.224 C271.264,284.173 271.323,350.121 271.293,416.07 C271.289,425.227 265.389,431.29 257.017,431.3 C248.47,431.309 242.7,425.148 242.695,415.605 C242.665,350.155 242.697,284.706 243.137,218.863 C252.83,223.202 262.049,222.684 271.233,218.224z"/><path fill="#00FFCB" d="M228.125,189.213 C197.602,165.427 170.038,138.858 149.443,105.712 C145.955,100.099 145.474,94.404 149.217,88.852 C152.61,83.819 157.789,81.471 163.53,83.13 C167.066,84.151 171.15,86.534 173.028,89.533 C191.956,119.77 217.254,143.912 244.919,166.36 C235.464,171.356 230.404,179.239 228.125,189.213z"/><path fill="#00FFCB" d="M268.529,166.358 C296.365,144.336 321.842,120.12 340.711,89.634 C345.241,82.317 353.859,80.54 360.721,84.907 C367.5,89.22 369.371,97.697 364.9,105.085 C350.366,129.095 331.677,149.602 310.912,168.278 C302.995,175.4 294.638,182.032 285.961,188.736 C283.701,178.21 277.62,171.139 268.529,166.358z"/><path fill="#E6463C" d="M268.163,166.272 C277.62,171.139 283.701,178.21 285.652,188.902 C286.443,201.394 282.047,211.109 271.464,218.052 C262.049,222.684 252.83,223.202 243.169,218.347 C232.609,211.588 227.576,202.297 228.161,189.645 C230.404,179.239 235.464,171.356 245.221,166.573 C252.901,163.762 260.337,163.342 268.163,166.272z"/>
  </g>
  <g transform="translate(1513,135) rotate(-40,20,25) scale(0.071)" opacity="0.08">
    <path fill="#00FFCB" d="M271.233,218.224 C271.264,284.173 271.323,350.121 271.293,416.07 C271.289,425.227 265.389,431.29 257.017,431.3 C248.47,431.309 242.7,425.148 242.695,415.605 C242.665,350.155 242.697,284.706 243.137,218.863 C252.83,223.202 262.049,222.684 271.233,218.224z"/><path fill="#00FFCB" d="M228.125,189.213 C197.602,165.427 170.038,138.858 149.443,105.712 C145.955,100.099 145.474,94.404 149.217,88.852 C152.61,83.819 157.789,81.471 163.53,83.13 C167.066,84.151 171.15,86.534 173.028,89.533 C191.956,119.77 217.254,143.912 244.919,166.36 C235.464,171.356 230.404,179.239 228.125,189.213z"/><path fill="#00FFCB" d="M268.529,166.358 C296.365,144.336 321.842,120.12 340.711,89.634 C345.241,82.317 353.859,80.54 360.721,84.907 C367.5,89.22 369.371,97.697 364.9,105.085 C350.366,129.095 331.677,149.602 310.912,168.278 C302.995,175.4 294.638,182.032 285.961,188.736 C283.701,178.21 277.62,171.139 268.529,166.358z"/><path fill="#E6463C" d="M268.163,166.272 C277.62,171.139 283.701,178.21 285.652,188.902 C286.443,201.394 282.047,211.109 271.464,218.052 C262.049,222.684 252.83,223.202 243.169,218.347 C232.609,211.588 227.576,202.297 228.161,189.645 C230.404,179.239 235.464,171.356 245.221,166.573 C252.901,163.762 260.337,163.342 268.163,166.272z"/>
  </g>
  <g transform="translate(1330,295) rotate(-32,20,25) scale(0.079)" opacity="0.13">
    <path fill="#00FFCB" d="M271.233,218.224 C271.264,284.173 271.323,350.121 271.293,416.07 C271.289,425.227 265.389,431.29 257.017,431.3 C248.47,431.309 242.7,425.148 242.695,415.605 C242.665,350.155 242.697,284.706 243.137,218.863 C252.83,223.202 262.049,222.684 271.233,218.224z"/><path fill="#00FFCB" d="M228.125,189.213 C197.602,165.427 170.038,138.858 149.443,105.712 C145.955,100.099 145.474,94.404 149.217,88.852 C152.61,83.819 157.789,81.471 163.53,83.13 C167.066,84.151 171.15,86.534 173.028,89.533 C191.956,119.77 217.254,143.912 244.919,166.36 C235.464,171.356 230.404,179.239 228.125,189.213z"/><path fill="#00FFCB" d="M268.529,166.358 C296.365,144.336 321.842,120.12 340.711,89.634 C345.241,82.317 353.859,80.54 360.721,84.907 C367.5,89.22 369.371,97.697 364.9,105.085 C350.366,129.095 331.677,149.602 310.912,168.278 C302.995,175.4 294.638,182.032 285.961,188.736 C283.701,178.21 277.62,171.139 268.529,166.358z"/><path fill="#E6463C" d="M268.163,166.272 C277.62,171.139 283.701,178.21 285.652,188.902 C286.443,201.394 282.047,211.109 271.464,218.052 C262.049,222.684 252.83,223.202 243.169,218.347 C232.609,211.588 227.576,202.297 228.161,189.645 C230.404,179.239 235.464,171.356 245.221,166.573 C252.901,163.762 260.337,163.342 268.163,166.272z"/>
  </g>
  <g transform="translate(134,127) rotate(45,20,25) scale(0.056)" opacity="0.09">
    <path fill="#00FFCB" d="M271.233,218.224 C271.264,284.173 271.323,350.121 271.293,416.07 C271.289,425.227 265.389,431.29 257.017,431.3 C248.47,431.309 242.7,425.148 242.695,415.605 C242.665,350.155 242.697,284.706 243.137,218.863 C252.83,223.202 262.049,222.684 271.233,218.224z"/><path fill="#00FFCB" d="M228.125,189.213 C197.602,165.427 170.038,138.858 149.443,105.712 C145.955,100.099 145.474,94.404 149.217,88.852 C152.61,83.819 157.789,81.471 163.53,83.13 C167.066,84.151 171.15,86.534 173.028,89.533 C191.956,119.77 217.254,143.912 244.919,166.36 C235.464,171.356 230.404,179.239 228.125,189.213z"/><path fill="#00FFCB" d="M268.529,166.358 C296.365,144.336 321.842,120.12 340.711,89.634 C345.241,82.317 353.859,80.54 360.721,84.907 C367.5,89.22 369.371,97.697 364.9,105.085 C350.366,129.095 331.677,149.602 310.912,168.278 C302.995,175.4 294.638,182.032 285.961,188.736 C283.701,178.21 277.62,171.139 268.529,166.358z"/><path fill="#E6463C" d="M268.163,166.272 C277.62,171.139 283.701,178.21 285.652,188.902 C286.443,201.394 282.047,211.109 271.464,218.052 C262.049,222.684 252.83,223.202 243.169,218.347 C232.609,211.588 227.576,202.297 228.161,189.645 C230.404,179.239 235.464,171.356 245.221,166.573 C252.901,163.762 260.337,163.342 268.163,166.272z"/>
  </g>
  <g transform="translate(568,43) rotate(-33,20,25) scale(0.087)" opacity="0.11">
    <path fill="#00FFCB" d="M271.233,218.224 C271.264,284.173 271.323,350.121 271.293,416.07 C271.289,425.227 265.389,431.29 257.017,431.3 C248.47,431.309 242.7,425.148 242.695,415.605 C242.665,350.155 242.697,284.706 243.137,218.863 C252.83,223.202 262.049,222.684 271.233,218.224z"/><path fill="#00FFCB" d="M228.125,189.213 C197.602,165.427 170.038,138.858 149.443,105.712 C145.955,100.099 145.474,94.404 149.217,88.852 C152.61,83.819 157.789,81.471 163.53,83.13 C167.066,84.151 171.15,86.534 173.028,89.533 C191.956,119.77 217.254,143.912 244.919,166.36 C235.464,171.356 230.404,179.239 228.125,189.213z"/><path fill="#00FFCB" d="M268.529,166.358 C296.365,144.336 321.842,120.12 340.711,89.634 C345.241,82.317 353.859,80.54 360.721,84.907 C367.5,89.22 369.371,97.697 364.9,105.085 C350.366,129.095 331.677,149.602 310.912,168.278 C302.995,175.4 294.638,182.032 285.961,188.736 C283.701,178.21 277.62,171.139 268.529,166.358z"/><path fill="#E6463C" d="M268.163,166.272 C277.62,171.139 283.701,178.21 285.652,188.902 C286.443,201.394 282.047,211.109 271.464,218.052 C262.049,222.684 252.83,223.202 243.169,218.347 C232.609,211.588 227.576,202.297 228.161,189.645 C230.404,179.239 235.464,171.356 245.221,166.573 C252.901,163.762 260.337,163.342 268.163,166.272z"/>
  </g>
  <g transform="translate(1490,171) rotate(-33,20,25) scale(0.078)" opacity="0.09">
    <path fill="#00FFCB" d="M271.233,218.224 C271.264,284.173 271.323,350.121 271.293,416.07 C271.289,425.227 265.389,431.29 257.017,431.3 C248.47,431.309 242.7,425.148 242.695,415.605 C242.665,350.155 242.697,284.706 243.137,218.863 C252.83,223.202 262.049,222.684 271.233,218.224z"/><path fill="#00FFCB" d="M228.125,189.213 C197.602,165.427 170.038,138.858 149.443,105.712 C145.955,100.099 145.474,94.404 149.217,88.852 C152.61,83.819 157.789,81.471 163.53,83.13 C167.066,84.151 171.15,86.534 173.028,89.533 C191.956,119.77 217.254,143.912 244.919,166.36 C235.464,171.356 230.404,179.239 228.125,189.213z"/><path fill="#00FFCB" d="M268.529,166.358 C296.365,144.336 321.842,120.12 340.711,89.634 C345.241,82.317 353.859,80.54 360.721,84.907 C367.5,89.22 369.371,97.697 364.9,105.085 C350.366,129.095 331.677,149.602 310.912,168.278 C302.995,175.4 294.638,182.032 285.961,188.736 C283.701,178.21 277.62,171.139 268.529,166.358z"/><path fill="#E6463C" d="M268.163,166.272 C277.62,171.139 283.701,178.21 285.652,188.902 C286.443,201.394 282.047,211.109 271.464,218.052 C262.049,222.684 252.83,223.202 243.169,218.347 C232.609,211.588 227.576,202.297 228.161,189.645 C230.404,179.239 235.464,171.356 245.221,166.573 C252.901,163.762 260.337,163.342 268.163,166.272z"/>
  </g>
  <g transform="translate(1336,244) rotate(-42,20,25) scale(0.064)" opacity="0.08">
    <path fill="#00FFCB" d="M271.233,218.224 C271.264,284.173 271.323,350.121 271.293,416.07 C271.289,425.227 265.389,431.29 257.017,431.3 C248.47,431.309 242.7,425.148 242.695,415.605 C242.665,350.155 242.697,284.706 243.137,218.863 C252.83,223.202 262.049,222.684 271.233,218.224z"/><path fill="#00FFCB" d="M228.125,189.213 C197.602,165.427 170.038,138.858 149.443,105.712 C145.955,100.099 145.474,94.404 149.217,88.852 C152.61,83.819 157.789,81.471 163.53,83.13 C167.066,84.151 171.15,86.534 173.028,89.533 C191.956,119.77 217.254,143.912 244.919,166.36 C235.464,171.356 230.404,179.239 228.125,189.213z"/><path fill="#00FFCB" d="M268.529,166.358 C296.365,144.336 321.842,120.12 340.711,89.634 C345.241,82.317 353.859,80.54 360.721,84.907 C367.5,89.22 369.371,97.697 364.9,105.085 C350.366,129.095 331.677,149.602 310.912,168.278 C302.995,175.4 294.638,182.032 285.961,188.736 C283.701,178.21 277.62,171.139 268.529,166.358z"/><path fill="#E6463C" d="M268.163,166.272 C277.62,171.139 283.701,178.21 285.652,188.902 C286.443,201.394 282.047,211.109 271.464,218.052 C262.049,222.684 252.83,223.202 243.169,218.347 C232.609,211.588 227.576,202.297 228.161,189.645 C230.404,179.239 235.464,171.356 245.221,166.573 C252.901,163.762 260.337,163.342 268.163,166.272z"/>
  </g>
  <g transform="translate(1169,285) rotate(-27,20,25) scale(0.081)" opacity="0.09">
    <path fill="#00FFCB" d="M271.233,218.224 C271.264,284.173 271.323,350.121 271.293,416.07 C271.289,425.227 265.389,431.29 257.017,431.3 C248.47,431.309 242.7,425.148 242.695,415.605 C242.665,350.155 242.697,284.706 243.137,218.863 C252.83,223.202 262.049,222.684 271.233,218.224z"/><path fill="#00FFCB" d="M228.125,189.213 C197.602,165.427 170.038,138.858 149.443,105.712 C145.955,100.099 145.474,94.404 149.217,88.852 C152.61,83.819 157.789,81.471 163.53,83.13 C167.066,84.151 171.15,86.534 173.028,89.533 C191.956,119.77 217.254,143.912 244.919,166.36 C235.464,171.356 230.404,179.239 228.125,189.213z"/><path fill="#00FFCB" d="M268.529,166.358 C296.365,144.336 321.842,120.12 340.711,89.634 C345.241,82.317 353.859,80.54 360.721,84.907 C367.5,89.22 369.371,97.697 364.9,105.085 C350.366,129.095 331.677,149.602 310.912,168.278 C302.995,175.4 294.638,182.032 285.961,188.736 C283.701,178.21 277.62,171.139 268.529,166.358z"/><path fill="#E6463C" d="M268.163,166.272 C277.62,171.139 283.701,178.21 285.652,188.902 C286.443,201.394 282.047,211.109 271.464,218.052 C262.049,222.684 252.83,223.202 243.169,218.347 C232.609,211.588 227.576,202.297 228.161,189.645 C230.404,179.239 235.464,171.356 245.221,166.573 C252.901,163.762 260.337,163.342 268.163,166.272z"/>
  </g>
  <g transform="translate(1215,214) rotate(-14,20,25) scale(0.063)" opacity="0.14">
    <path fill="#00FFCB" d="M271.233,218.224 C271.264,284.173 271.323,350.121 271.293,416.07 C271.289,425.227 265.389,431.29 257.017,431.3 C248.47,431.309 242.7,425.148 242.695,415.605 C242.665,350.155 242.697,284.706 243.137,218.863 C252.83,223.202 262.049,222.684 271.233,218.224z"/><path fill="#00FFCB" d="M228.125,189.213 C197.602,165.427 170.038,138.858 149.443,105.712 C145.955,100.099 145.474,94.404 149.217,88.852 C152.61,83.819 157.789,81.471 163.53,83.13 C167.066,84.151 171.15,86.534 173.028,89.533 C191.956,119.77 217.254,143.912 244.919,166.36 C235.464,171.356 230.404,179.239 228.125,189.213z"/><path fill="#00FFCB" d="M268.529,166.358 C296.365,144.336 321.842,120.12 340.711,89.634 C345.241,82.317 353.859,80.54 360.721,84.907 C367.5,89.22 369.371,97.697 364.9,105.085 C350.366,129.095 331.677,149.602 310.912,168.278 C302.995,175.4 294.638,182.032 285.961,188.736 C283.701,178.21 277.62,171.139 268.529,166.358z"/><path fill="#E6463C" d="M268.163,166.272 C277.62,171.139 283.701,178.21 285.652,188.902 C286.443,201.394 282.047,211.109 271.464,218.052 C262.049,222.684 252.83,223.202 243.169,218.347 C232.609,211.588 227.576,202.297 228.161,189.645 C230.404,179.239 235.464,171.356 245.221,166.573 C252.901,163.762 260.337,163.342 268.163,166.272z"/>
  </g>
  <g transform="translate(206,34) rotate(50,20,25) scale(0.059)" opacity="0.11">
    <path fill="#00FFCB" d="M271.233,218.224 C271.264,284.173 271.323,350.121 271.293,416.07 C271.289,425.227 265.389,431.29 257.017,431.3 C248.47,431.309 242.7,425.148 242.695,415.605 C242.665,350.155 242.697,284.706 243.137,218.863 C252.83,223.202 262.049,222.684 271.233,218.224z"/><path fill="#00FFCB" d="M228.125,189.213 C197.602,165.427 170.038,138.858 149.443,105.712 C145.955,100.099 145.474,94.404 149.217,88.852 C152.61,83.819 157.789,81.471 163.53,83.13 C167.066,84.151 171.15,86.534 173.028,89.533 C191.956,119.77 217.254,143.912 244.919,166.36 C235.464,171.356 230.404,179.239 228.125,189.213z"/><path fill="#00FFCB" d="M268.529,166.358 C296.365,144.336 321.842,120.12 340.711,89.634 C345.241,82.317 353.859,80.54 360.721,84.907 C367.5,89.22 369.371,97.697 364.9,105.085 C350.366,129.095 331.677,149.602 310.912,168.278 C302.995,175.4 294.638,182.032 285.961,188.736 C283.701,178.21 277.62,171.139 268.529,166.358z"/><path fill="#E6463C" d="M268.163,166.272 C277.62,171.139 283.701,178.21 285.652,188.902 C286.443,201.394 282.047,211.109 271.464,218.052 C262.049,222.684 252.83,223.202 243.169,218.347 C232.609,211.588 227.576,202.297 228.161,189.645 C230.404,179.239 235.464,171.356 245.221,166.573 C252.901,163.762 260.337,163.342 268.163,166.272z"/>
  </g>
  <g transform="translate(1413,226) rotate(16,20,25) scale(0.057)" opacity="0.09">
    <path fill="#00FFCB" d="M271.233,218.224 C271.264,284.173 271.323,350.121 271.293,416.07 C271.289,425.227 265.389,431.29 257.017,431.3 C248.47,431.309 242.7,425.148 242.695,415.605 C242.665,350.155 242.697,284.706 243.137,218.863 C252.83,223.202 262.049,222.684 271.233,218.224z"/><path fill="#00FFCB" d="M228.125,189.213 C197.602,165.427 170.038,138.858 149.443,105.712 C145.955,100.099 145.474,94.404 149.217,88.852 C152.61,83.819 157.789,81.471 163.53,83.13 C167.066,84.151 171.15,86.534 173.028,89.533 C191.956,119.77 217.254,143.912 244.919,166.36 C235.464,171.356 230.404,179.239 228.125,189.213z"/><path fill="#00FFCB" d="M268.529,166.358 C296.365,144.336 321.842,120.12 340.711,89.634 C345.241,82.317 353.859,80.54 360.721,84.907 C367.5,89.22 369.371,97.697 364.9,105.085 C350.366,129.095 331.677,149.602 310.912,168.278 C302.995,175.4 294.638,182.032 285.961,188.736 C283.701,178.21 277.62,171.139 268.529,166.358z"/><path fill="#E6463C" d="M268.163,166.272 C277.62,171.139 283.701,178.21 285.652,188.902 C286.443,201.394 282.047,211.109 271.464,218.052 C262.049,222.684 252.83,223.202 243.169,218.347 C232.609,211.588 227.576,202.297 228.161,189.645 C230.404,179.239 235.464,171.356 245.221,166.573 C252.901,163.762 260.337,163.342 268.163,166.272z"/>
  </g>
  <g transform="translate(978,280) rotate(-28,20,25) scale(0.089)" opacity="0.13">
    <path fill="#00FFCB" d="M271.233,218.224 C271.264,284.173 271.323,350.121 271.293,416.07 C271.289,425.227 265.389,431.29 257.017,431.3 C248.47,431.309 242.7,425.148 242.695,415.605 C242.665,350.155 242.697,284.706 243.137,218.863 C252.83,223.202 262.049,222.684 271.233,218.224z"/><path fill="#00FFCB" d="M228.125,189.213 C197.602,165.427 170.038,138.858 149.443,105.712 C145.955,100.099 145.474,94.404 149.217,88.852 C152.61,83.819 157.789,81.471 163.53,83.13 C167.066,84.151 171.15,86.534 173.028,89.533 C191.956,119.77 217.254,143.912 244.919,166.36 C235.464,171.356 230.404,179.239 228.125,189.213z"/><path fill="#00FFCB" d="M268.529,166.358 C296.365,144.336 321.842,120.12 340.711,89.634 C345.241,82.317 353.859,80.54 360.721,84.907 C367.5,89.22 369.371,97.697 364.9,105.085 C350.366,129.095 331.677,149.602 310.912,168.278 C302.995,175.4 294.638,182.032 285.961,188.736 C283.701,178.21 277.62,171.139 268.529,166.358z"/><path fill="#E6463C" d="M268.163,166.272 C277.62,171.139 283.701,178.21 285.652,188.902 C286.443,201.394 282.047,211.109 271.464,218.052 C262.049,222.684 252.83,223.202 243.169,218.347 C232.609,211.588 227.576,202.297 228.161,189.645 C230.404,179.239 235.464,171.356 245.221,166.573 C252.901,163.762 260.337,163.342 268.163,166.272z"/>
  </g>
  <g transform="translate(43,68) rotate(27,20,25) scale(0.086)" opacity="0.12">
    <path fill="#00FFCB" d="M271.233,218.224 C271.264,284.173 271.323,350.121 271.293,416.07 C271.289,425.227 265.389,431.29 257.017,431.3 C248.47,431.309 242.7,425.148 242.695,415.605 C242.665,350.155 242.697,284.706 243.137,218.863 C252.83,223.202 262.049,222.684 271.233,218.224z"/><path fill="#00FFCB" d="M228.125,189.213 C197.602,165.427 170.038,138.858 149.443,105.712 C145.955,100.099 145.474,94.404 149.217,88.852 C152.61,83.819 157.789,81.471 163.53,83.13 C167.066,84.151 171.15,86.534 173.028,89.533 C191.956,119.77 217.254,143.912 244.919,166.36 C235.464,171.356 230.404,179.239 228.125,189.213z"/><path fill="#00FFCB" d="M268.529,166.358 C296.365,144.336 321.842,120.12 340.711,89.634 C345.241,82.317 353.859,80.54 360.721,84.907 C367.5,89.22 369.371,97.697 364.9,105.085 C350.366,129.095 331.677,149.602 310.912,168.278 C302.995,175.4 294.638,182.032 285.961,188.736 C283.701,178.21 277.62,171.139 268.529,166.358z"/><path fill="#E6463C" d="M268.163,166.272 C277.62,171.139 283.701,178.21 285.652,188.902 C286.443,201.394 282.047,211.109 271.464,218.052 C262.049,222.684 252.83,223.202 243.169,218.347 C232.609,211.588 227.576,202.297 228.161,189.645 C230.404,179.239 235.464,171.356 245.221,166.573 C252.901,163.762 260.337,163.342 268.163,166.272z"/>
  </g>
  <g transform="translate(1332,184) rotate(-46,20,25) scale(0.065)" opacity="0.07">
    <path fill="#00FFCB" d="M271.233,218.224 C271.264,284.173 271.323,350.121 271.293,416.07 C271.289,425.227 265.389,431.29 257.017,431.3 C248.47,431.309 242.7,425.148 242.695,415.605 C242.665,350.155 242.697,284.706 243.137,218.863 C252.83,223.202 262.049,222.684 271.233,218.224z"/><path fill="#00FFCB" d="M228.125,189.213 C197.602,165.427 170.038,138.858 149.443,105.712 C145.955,100.099 145.474,94.404 149.217,88.852 C152.61,83.819 157.789,81.471 163.53,83.13 C167.066,84.151 171.15,86.534 173.028,89.533 C191.956,119.77 217.254,143.912 244.919,166.36 C235.464,171.356 230.404,179.239 228.125,189.213z"/><path fill="#00FFCB" d="M268.529,166.358 C296.365,144.336 321.842,120.12 340.711,89.634 C345.241,82.317 353.859,80.54 360.721,84.907 C367.5,89.22 369.371,97.697 364.9,105.085 C350.366,129.095 331.677,149.602 310.912,168.278 C302.995,175.4 294.638,182.032 285.961,188.736 C283.701,178.21 277.62,171.139 268.529,166.358z"/><path fill="#E6463C" d="M268.163,166.272 C277.62,171.139 283.701,178.21 285.652,188.902 C286.443,201.394 282.047,211.109 271.464,218.052 C262.049,222.684 252.83,223.202 243.169,218.347 C232.609,211.588 227.576,202.297 228.161,189.645 C230.404,179.239 235.464,171.356 245.221,166.573 C252.901,163.762 260.337,163.342 268.163,166.272z"/>
  </g>
  <g transform="translate(26,144) rotate(4,20,25) scale(0.082)" opacity="0.10">
    <path fill="#00FFCB" d="M271.233,218.224 C271.264,284.173 271.323,350.121 271.293,416.07 C271.289,425.227 265.389,431.29 257.017,431.3 C248.47,431.309 242.7,425.148 242.695,415.605 C242.665,350.155 242.697,284.706 243.137,218.863 C252.83,223.202 262.049,222.684 271.233,218.224z"/><path fill="#00FFCB" d="M228.125,189.213 C197.602,165.427 170.038,138.858 149.443,105.712 C145.955,100.099 145.474,94.404 149.217,88.852 C152.61,83.819 157.789,81.471 163.53,83.13 C167.066,84.151 171.15,86.534 173.028,89.533 C191.956,119.77 217.254,143.912 244.919,166.36 C235.464,171.356 230.404,179.239 228.125,189.213z"/><path fill="#00FFCB" d="M268.529,166.358 C296.365,144.336 321.842,120.12 340.711,89.634 C345.241,82.317 353.859,80.54 360.721,84.907 C367.5,89.22 369.371,97.697 364.9,105.085 C350.366,129.095 331.677,149.602 310.912,168.278 C302.995,175.4 294.638,182.032 285.961,188.736 C283.701,178.21 277.62,171.139 268.529,166.358z"/><path fill="#E6463C" d="M268.163,166.272 C277.62,171.139 283.701,178.21 285.652,188.902 C286.443,201.394 282.047,211.109 271.464,218.052 C262.049,222.684 252.83,223.202 243.169,218.347 C232.609,211.588 227.576,202.297 228.161,189.645 C230.404,179.239 235.464,171.356 245.221,166.573 C252.901,163.762 260.337,163.342 268.163,166.272z"/>
  </g>
  <g transform="translate(237,330) rotate(-22,20,25) scale(0.084)" opacity="0.10">
    <path fill="#00FFCB" d="M271.233,218.224 C271.264,284.173 271.323,350.121 271.293,416.07 C271.289,425.227 265.389,431.29 257.017,431.3 C248.47,431.309 242.7,425.148 242.695,415.605 C242.665,350.155 242.697,284.706 243.137,218.863 C252.83,223.202 262.049,222.684 271.233,218.224z"/><path fill="#00FFCB" d="M228.125,189.213 C197.602,165.427 170.038,138.858 149.443,105.712 C145.955,100.099 145.474,94.404 149.217,88.852 C152.61,83.819 157.789,81.471 163.53,83.13 C167.066,84.151 171.15,86.534 173.028,89.533 C191.956,119.77 217.254,143.912 244.919,166.36 C235.464,171.356 230.404,179.239 228.125,189.213z"/><path fill="#00FFCB" d="M268.529,166.358 C296.365,144.336 321.842,120.12 340.711,89.634 C345.241,82.317 353.859,80.54 360.721,84.907 C367.5,89.22 369.371,97.697 364.9,105.085 C350.366,129.095 331.677,149.602 310.912,168.278 C302.995,175.4 294.638,182.032 285.961,188.736 C283.701,178.21 277.62,171.139 268.529,166.358z"/><path fill="#E6463C" d="M268.163,166.272 C277.62,171.139 283.701,178.21 285.652,188.902 C286.443,201.394 282.047,211.109 271.464,218.052 C262.049,222.684 252.83,223.202 243.169,218.347 C232.609,211.588 227.576,202.297 228.161,189.645 C230.404,179.239 235.464,171.356 245.221,166.573 C252.901,163.762 260.337,163.342 268.163,166.272z"/>
  </g>
  <g transform="translate(427,88) rotate(-13,20,25) scale(0.082)" opacity="0.10">
    <path fill="#00FFCB" d="M271.233,218.224 C271.264,284.173 271.323,350.121 271.293,416.07 C271.289,425.227 265.389,431.29 257.017,431.3 C248.47,431.309 242.7,425.148 242.695,415.605 C242.665,350.155 242.697,284.706 243.137,218.863 C252.83,223.202 262.049,222.684 271.233,218.224z"/><path fill="#00FFCB" d="M228.125,189.213 C197.602,165.427 170.038,138.858 149.443,105.712 C145.955,100.099 145.474,94.404 149.217,88.852 C152.61,83.819 157.789,81.471 163.53,83.13 C167.066,84.151 171.15,86.534 173.028,89.533 C191.956,119.77 217.254,143.912 244.919,166.36 C235.464,171.356 230.404,179.239 228.125,189.213z"/><path fill="#00FFCB" d="M268.529,166.358 C296.365,144.336 321.842,120.12 340.711,89.634 C345.241,82.317 353.859,80.54 360.721,84.907 C367.5,89.22 369.371,97.697 364.9,105.085 C350.366,129.095 331.677,149.602 310.912,168.278 C302.995,175.4 294.638,182.032 285.961,188.736 C283.701,178.21 277.62,171.139 268.529,166.358z"/><path fill="#E6463C" d="M268.163,166.272 C277.62,171.139 283.701,178.21 285.652,188.902 C286.443,201.394 282.047,211.109 271.464,218.052 C262.049,222.684 252.83,223.202 243.169,218.347 C232.609,211.588 227.576,202.297 228.161,189.645 C230.404,179.239 235.464,171.356 245.221,166.573 C252.901,163.762 260.337,163.342 268.163,166.272z"/>
  </g>
  <g transform="translate(1106,10) rotate(16,20,25) scale(0.066)" opacity="0.06">
    <path fill="#00FFCB" d="M271.233,218.224 C271.264,284.173 271.323,350.121 271.293,416.07 C271.289,425.227 265.389,431.29 257.017,431.3 C248.47,431.309 242.7,425.148 242.695,415.605 C242.665,350.155 242.697,284.706 243.137,218.863 C252.83,223.202 262.049,222.684 271.233,218.224z"/><path fill="#00FFCB" d="M228.125,189.213 C197.602,165.427 170.038,138.858 149.443,105.712 C145.955,100.099 145.474,94.404 149.217,88.852 C152.61,83.819 157.789,81.471 163.53,83.13 C167.066,84.151 171.15,86.534 173.028,89.533 C191.956,119.77 217.254,143.912 244.919,166.36 C235.464,171.356 230.404,179.239 228.125,189.213z"/><path fill="#00FFCB" d="M268.529,166.358 C296.365,144.336 321.842,120.12 340.711,89.634 C345.241,82.317 353.859,80.54 360.721,84.907 C367.5,89.22 369.371,97.697 364.9,105.085 C350.366,129.095 331.677,149.602 310.912,168.278 C302.995,175.4 294.638,182.032 285.961,188.736 C283.701,178.21 277.62,171.139 268.529,166.358z"/><path fill="#E6463C" d="M268.163,166.272 C277.62,171.139 283.701,178.21 285.652,188.902 C286.443,201.394 282.047,211.109 271.464,218.052 C262.049,222.684 252.83,223.202 243.169,218.347 C232.609,211.588 227.576,202.297 228.161,189.645 C230.404,179.239 235.464,171.356 245.221,166.573 C252.901,163.762 260.337,163.342 268.163,166.272z"/>
  </g>
  <g transform="translate(510,39) rotate(-30,20,25) scale(0.086)" opacity="0.14">
    <path fill="#00FFCB" d="M271.233,218.224 C271.264,284.173 271.323,350.121 271.293,416.07 C271.289,425.227 265.389,431.29 257.017,431.3 C248.47,431.309 242.7,425.148 242.695,415.605 C242.665,350.155 242.697,284.706 243.137,218.863 C252.83,223.202 262.049,222.684 271.233,218.224z"/><path fill="#00FFCB" d="M228.125,189.213 C197.602,165.427 170.038,138.858 149.443,105.712 C145.955,100.099 145.474,94.404 149.217,88.852 C152.61,83.819 157.789,81.471 163.53,83.13 C167.066,84.151 171.15,86.534 173.028,89.533 C191.956,119.77 217.254,143.912 244.919,166.36 C235.464,171.356 230.404,179.239 228.125,189.213z"/><path fill="#00FFCB" d="M268.529,166.358 C296.365,144.336 321.842,120.12 340.711,89.634 C345.241,82.317 353.859,80.54 360.721,84.907 C367.5,89.22 369.371,97.697 364.9,105.085 C350.366,129.095 331.677,149.602 310.912,168.278 C302.995,175.4 294.638,182.032 285.961,188.736 C283.701,178.21 277.62,171.139 268.529,166.358z"/><path fill="#E6463C" d="M268.163,166.272 C277.62,171.139 283.701,178.21 285.652,188.902 C286.443,201.394 282.047,211.109 271.464,218.052 C262.049,222.684 252.83,223.202 243.169,218.347 C232.609,211.588 227.576,202.297 228.161,189.645 C230.404,179.239 235.464,171.356 245.221,166.573 C252.901,163.762 260.337,163.342 268.163,166.272z"/>
  </g>
  <g transform="translate(195,258) rotate(44,20,25) scale(0.057)" opacity="0.12">
    <path fill="#00FFCB" d="M271.233,218.224 C271.264,284.173 271.323,350.121 271.293,416.07 C271.289,425.227 265.389,431.29 257.017,431.3 C248.47,431.309 242.7,425.148 242.695,415.605 C242.665,350.155 242.697,284.706 243.137,218.863 C252.83,223.202 262.049,222.684 271.233,218.224z"/><path fill="#00FFCB" d="M228.125,189.213 C197.602,165.427 170.038,138.858 149.443,105.712 C145.955,100.099 145.474,94.404 149.217,88.852 C152.61,83.819 157.789,81.471 163.53,83.13 C167.066,84.151 171.15,86.534 173.028,89.533 C191.956,119.77 217.254,143.912 244.919,166.36 C235.464,171.356 230.404,179.239 228.125,189.213z"/><path fill="#00FFCB" d="M268.529,166.358 C296.365,144.336 321.842,120.12 340.711,89.634 C345.241,82.317 353.859,80.54 360.721,84.907 C367.5,89.22 369.371,97.697 364.9,105.085 C350.366,129.095 331.677,149.602 310.912,168.278 C302.995,175.4 294.638,182.032 285.961,188.736 C283.701,178.21 277.62,171.139 268.529,166.358z"/><path fill="#E6463C" d="M268.163,166.272 C277.62,171.139 283.701,178.21 285.652,188.902 C286.443,201.394 282.047,211.109 271.464,218.052 C262.049,222.684 252.83,223.202 243.169,218.347 C232.609,211.588 227.576,202.297 228.161,189.645 C230.404,179.239 235.464,171.356 245.221,166.573 C252.901,163.762 260.337,163.342 268.163,166.272z"/>
  </g>
  <g transform="translate(277,75) rotate(24,20,25) scale(0.072)" opacity="0.10">
    <path fill="#00FFCB" d="M271.233,218.224 C271.264,284.173 271.323,350.121 271.293,416.07 C271.289,425.227 265.389,431.29 257.017,431.3 C248.47,431.309 242.7,425.148 242.695,415.605 C242.665,350.155 242.697,284.706 243.137,218.863 C252.83,223.202 262.049,222.684 271.233,218.224z"/><path fill="#00FFCB" d="M228.125,189.213 C197.602,165.427 170.038,138.858 149.443,105.712 C145.955,100.099 145.474,94.404 149.217,88.852 C152.61,83.819 157.789,81.471 163.53,83.13 C167.066,84.151 171.15,86.534 173.028,89.533 C191.956,119.77 217.254,143.912 244.919,166.36 C235.464,171.356 230.404,179.239 228.125,189.213z"/><path fill="#00FFCB" d="M268.529,166.358 C296.365,144.336 321.842,120.12 340.711,89.634 C345.241,82.317 353.859,80.54 360.721,84.907 C367.5,89.22 369.371,97.697 364.9,105.085 C350.366,129.095 331.677,149.602 310.912,168.278 C302.995,175.4 294.638,182.032 285.961,188.736 C283.701,178.21 277.62,171.139 268.529,166.358z"/><path fill="#E6463C" d="M268.163,166.272 C277.62,171.139 283.701,178.21 285.652,188.902 C286.443,201.394 282.047,211.109 271.464,218.052 C262.049,222.684 252.83,223.202 243.169,218.347 C232.609,211.588 227.576,202.297 228.161,189.645 C230.404,179.239 235.464,171.356 245.221,166.573 C252.901,163.762 260.337,163.342 268.163,166.272z"/>
  </g>
  <g transform="translate(562,280) rotate(51,20,25) scale(0.076)" opacity="0.14">
    <path fill="#00FFCB" d="M271.233,218.224 C271.264,284.173 271.323,350.121 271.293,416.07 C271.289,425.227 265.389,431.29 257.017,431.3 C248.47,431.309 242.7,425.148 242.695,415.605 C242.665,350.155 242.697,284.706 243.137,218.863 C252.83,223.202 262.049,222.684 271.233,218.224z"/><path fill="#00FFCB" d="M228.125,189.213 C197.602,165.427 170.038,138.858 149.443,105.712 C145.955,100.099 145.474,94.404 149.217,88.852 C152.61,83.819 157.789,81.471 163.53,83.13 C167.066,84.151 171.15,86.534 173.028,89.533 C191.956,119.77 217.254,143.912 244.919,166.36 C235.464,171.356 230.404,179.239 228.125,189.213z"/><path fill="#00FFCB" d="M268.529,166.358 C296.365,144.336 321.842,120.12 340.711,89.634 C345.241,82.317 353.859,80.54 360.721,84.907 C367.5,89.22 369.371,97.697 364.9,105.085 C350.366,129.095 331.677,149.602 310.912,168.278 C302.995,175.4 294.638,182.032 285.961,188.736 C283.701,178.21 277.62,171.139 268.529,166.358z"/><path fill="#E6463C" d="M268.163,166.272 C277.62,171.139 283.701,178.21 285.652,188.902 C286.443,201.394 282.047,211.109 271.464,218.052 C262.049,222.684 252.83,223.202 243.169,218.347 C232.609,211.588 227.576,202.297 228.161,189.645 C230.404,179.239 235.464,171.356 245.221,166.573 C252.901,163.762 260.337,163.342 268.163,166.272z"/>
  </g>
  <g transform="translate(1124,112) rotate(31,20,25) scale(0.066)" opacity="0.14">
    <path fill="#00FFCB" d="M271.233,218.224 C271.264,284.173 271.323,350.121 271.293,416.07 C271.289,425.227 265.389,431.29 257.017,431.3 C248.47,431.309 242.7,425.148 242.695,415.605 C242.665,350.155 242.697,284.706 243.137,218.863 C252.83,223.202 262.049,222.684 271.233,218.224z"/><path fill="#00FFCB" d="M228.125,189.213 C197.602,165.427 170.038,138.858 149.443,105.712 C145.955,100.099 145.474,94.404 149.217,88.852 C152.61,83.819 157.789,81.471 163.53,83.13 C167.066,84.151 171.15,86.534 173.028,89.533 C191.956,119.77 217.254,143.912 244.919,166.36 C235.464,171.356 230.404,179.239 228.125,189.213z"/><path fill="#00FFCB" d="M268.529,166.358 C296.365,144.336 321.842,120.12 340.711,89.634 C345.241,82.317 353.859,80.54 360.721,84.907 C367.5,89.22 369.371,97.697 364.9,105.085 C350.366,129.095 331.677,149.602 310.912,168.278 C302.995,175.4 294.638,182.032 285.961,188.736 C283.701,178.21 277.62,171.139 268.529,166.358z"/><path fill="#E6463C" d="M268.163,166.272 C277.62,171.139 283.701,178.21 285.652,188.902 C286.443,201.394 282.047,211.109 271.464,218.052 C262.049,222.684 252.83,223.202 243.169,218.347 C232.609,211.588 227.576,202.297 228.161,189.645 C230.404,179.239 235.464,171.356 245.221,166.573 C252.901,163.762 260.337,163.342 268.163,166.272z"/>
  </g>
  <g transform="translate(882,356) rotate(-45,20,25) scale(0.056)" opacity="0.06">
    <path fill="#00FFCB" d="M271.233,218.224 C271.264,284.173 271.323,350.121 271.293,416.07 C271.289,425.227 265.389,431.29 257.017,431.3 C248.47,431.309 242.7,425.148 242.695,415.605 C242.665,350.155 242.697,284.706 243.137,218.863 C252.83,223.202 262.049,222.684 271.233,218.224z"/><path fill="#00FFCB" d="M228.125,189.213 C197.602,165.427 170.038,138.858 149.443,105.712 C145.955,100.099 145.474,94.404 149.217,88.852 C152.61,83.819 157.789,81.471 163.53,83.13 C167.066,84.151 171.15,86.534 173.028,89.533 C191.956,119.77 217.254,143.912 244.919,166.36 C235.464,171.356 230.404,179.239 228.125,189.213z"/><path fill="#00FFCB" d="M268.529,166.358 C296.365,144.336 321.842,120.12 340.711,89.634 C345.241,82.317 353.859,80.54 360.721,84.907 C367.5,89.22 369.371,97.697 364.9,105.085 C350.366,129.095 331.677,149.602 310.912,168.278 C302.995,175.4 294.638,182.032 285.961,188.736 C283.701,178.21 277.62,171.139 268.529,166.358z"/><path fill="#E6463C" d="M268.163,166.272 C277.62,171.139 283.701,178.21 285.652,188.902 C286.443,201.394 282.047,211.109 271.464,218.052 C262.049,222.684 252.83,223.202 243.169,218.347 C232.609,211.588 227.576,202.297 228.161,189.645 C230.404,179.239 235.464,171.356 245.221,166.573 C252.901,163.762 260.337,163.342 268.163,166.272z"/>
  </g>
  <g transform="translate(521,85) rotate(15,20,25) scale(0.056)" opacity="0.06">
    <path fill="#00FFCB" d="M271.233,218.224 C271.264,284.173 271.323,350.121 271.293,416.07 C271.289,425.227 265.389,431.29 257.017,431.3 C248.47,431.309 242.7,425.148 242.695,415.605 C242.665,350.155 242.697,284.706 243.137,218.863 C252.83,223.202 262.049,222.684 271.233,218.224z"/><path fill="#00FFCB" d="M228.125,189.213 C197.602,165.427 170.038,138.858 149.443,105.712 C145.955,100.099 145.474,94.404 149.217,88.852 C152.61,83.819 157.789,81.471 163.53,83.13 C167.066,84.151 171.15,86.534 173.028,89.533 C191.956,119.77 217.254,143.912 244.919,166.36 C235.464,171.356 230.404,179.239 228.125,189.213z"/><path fill="#00FFCB" d="M268.529,166.358 C296.365,144.336 321.842,120.12 340.711,89.634 C345.241,82.317 353.859,80.54 360.721,84.907 C367.5,89.22 369.371,97.697 364.9,105.085 C350.366,129.095 331.677,149.602 310.912,168.278 C302.995,175.4 294.638,182.032 285.961,188.736 C283.701,178.21 277.62,171.139 268.529,166.358z"/><path fill="#E6463C" d="M268.163,166.272 C277.62,171.139 283.701,178.21 285.652,188.902 C286.443,201.394 282.047,211.109 271.464,218.052 C262.049,222.684 252.83,223.202 243.169,218.347 C232.609,211.588 227.576,202.297 228.161,189.645 C230.404,179.239 235.464,171.356 245.221,166.573 C252.901,163.762 260.337,163.342 268.163,166.272z"/>
  </g>
  <g transform="translate(560,39) rotate(50,20,25) scale(0.058)" opacity="0.08">
    <path fill="#00FFCB" d="M271.233,218.224 C271.264,284.173 271.323,350.121 271.293,416.07 C271.289,425.227 265.389,431.29 257.017,431.3 C248.47,431.309 242.7,425.148 242.695,415.605 C242.665,350.155 242.697,284.706 243.137,218.863 C252.83,223.202 262.049,222.684 271.233,218.224z"/><path fill="#00FFCB" d="M228.125,189.213 C197.602,165.427 170.038,138.858 149.443,105.712 C145.955,100.099 145.474,94.404 149.217,88.852 C152.61,83.819 157.789,81.471 163.53,83.13 C167.066,84.151 171.15,86.534 173.028,89.533 C191.956,119.77 217.254,143.912 244.919,166.36 C235.464,171.356 230.404,179.239 228.125,189.213z"/><path fill="#00FFCB" d="M268.529,166.358 C296.365,144.336 321.842,120.12 340.711,89.634 C345.241,82.317 353.859,80.54 360.721,84.907 C367.5,89.22 369.371,97.697 364.9,105.085 C350.366,129.095 331.677,149.602 310.912,168.278 C302.995,175.4 294.638,182.032 285.961,188.736 C283.701,178.21 277.62,171.139 268.529,166.358z"/><path fill="#E6463C" d="M268.163,166.272 C277.62,171.139 283.701,178.21 285.652,188.902 C286.443,201.394 282.047,211.109 271.464,218.052 C262.049,222.684 252.83,223.202 243.169,218.347 C232.609,211.588 227.576,202.297 228.161,189.645 C230.404,179.239 235.464,171.356 245.221,166.573 C252.901,163.762 260.337,163.342 268.163,166.272z"/>
  </g>
  <g transform="translate(785,95) rotate(9,20,25) scale(0.053)" opacity="0.10">
    <path fill="#00FFCB" d="M271.233,218.224 C271.264,284.173 271.323,350.121 271.293,416.07 C271.289,425.227 265.389,431.29 257.017,431.3 C248.47,431.309 242.7,425.148 242.695,415.605 C242.665,350.155 242.697,284.706 243.137,218.863 C252.83,223.202 262.049,222.684 271.233,218.224z"/><path fill="#00FFCB" d="M228.125,189.213 C197.602,165.427 170.038,138.858 149.443,105.712 C145.955,100.099 145.474,94.404 149.217,88.852 C152.61,83.819 157.789,81.471 163.53,83.13 C167.066,84.151 171.15,86.534 173.028,89.533 C191.956,119.77 217.254,143.912 244.919,166.36 C235.464,171.356 230.404,179.239 228.125,189.213z"/><path fill="#00FFCB" d="M268.529,166.358 C296.365,144.336 321.842,120.12 340.711,89.634 C345.241,82.317 353.859,80.54 360.721,84.907 C367.5,89.22 369.371,97.697 364.9,105.085 C350.366,129.095 331.677,149.602 310.912,168.278 C302.995,175.4 294.638,182.032 285.961,188.736 C283.701,178.21 277.62,171.139 268.529,166.358z"/><path fill="#E6463C" d="M268.163,166.272 C277.62,171.139 283.701,178.21 285.652,188.902 C286.443,201.394 282.047,211.109 271.464,218.052 C262.049,222.684 252.83,223.202 243.169,218.347 C232.609,211.588 227.576,202.297 228.161,189.645 C230.404,179.239 235.464,171.356 245.221,166.573 C252.901,163.762 260.337,163.342 268.163,166.272z"/>
  </g>
  <g transform="translate(1084,83) rotate(40,20,25) scale(0.062)" opacity="0.08">
    <path fill="#00FFCB" d="M271.233,218.224 C271.264,284.173 271.323,350.121 271.293,416.07 C271.289,425.227 265.389,431.29 257.017,431.3 C248.47,431.309 242.7,425.148 242.695,415.605 C242.665,350.155 242.697,284.706 243.137,218.863 C252.83,223.202 262.049,222.684 271.233,218.224z"/><path fill="#00FFCB" d="M228.125,189.213 C197.602,165.427 170.038,138.858 149.443,105.712 C145.955,100.099 145.474,94.404 149.217,88.852 C152.61,83.819 157.789,81.471 163.53,83.13 C167.066,84.151 171.15,86.534 173.028,89.533 C191.956,119.77 217.254,143.912 244.919,166.36 C235.464,171.356 230.404,179.239 228.125,189.213z"/><path fill="#00FFCB" d="M268.529,166.358 C296.365,144.336 321.842,120.12 340.711,89.634 C345.241,82.317 353.859,80.54 360.721,84.907 C367.5,89.22 369.371,97.697 364.9,105.085 C350.366,129.095 331.677,149.602 310.912,168.278 C302.995,175.4 294.638,182.032 285.961,188.736 C283.701,178.21 277.62,171.139 268.529,166.358z"/><path fill="#E6463C" d="M268.163,166.272 C277.62,171.139 283.701,178.21 285.652,188.902 C286.443,201.394 282.047,211.109 271.464,218.052 C262.049,222.684 252.83,223.202 243.169,218.347 C232.609,211.588 227.576,202.297 228.161,189.645 C230.404,179.239 235.464,171.356 245.221,166.573 C252.901,163.762 260.337,163.342 268.163,166.272z"/>
  </g>
  <g transform="translate(596,374) rotate(-15,20,25) scale(0.061)" opacity="0.08">
    <path fill="#00FFCB" d="M271.233,218.224 C271.264,284.173 271.323,350.121 271.293,416.07 C271.289,425.227 265.389,431.29 257.017,431.3 C248.47,431.309 242.7,425.148 242.695,415.605 C242.665,350.155 242.697,284.706 243.137,218.863 C252.83,223.202 262.049,222.684 271.233,218.224z"/><path fill="#00FFCB" d="M228.125,189.213 C197.602,165.427 170.038,138.858 149.443,105.712 C145.955,100.099 145.474,94.404 149.217,88.852 C152.61,83.819 157.789,81.471 163.53,83.13 C167.066,84.151 171.15,86.534 173.028,89.533 C191.956,119.77 217.254,143.912 244.919,166.36 C235.464,171.356 230.404,179.239 228.125,189.213z"/><path fill="#00FFCB" d="M268.529,166.358 C296.365,144.336 321.842,120.12 340.711,89.634 C345.241,82.317 353.859,80.54 360.721,84.907 C367.5,89.22 369.371,97.697 364.9,105.085 C350.366,129.095 331.677,149.602 310.912,168.278 C302.995,175.4 294.638,182.032 285.961,188.736 C283.701,178.21 277.62,171.139 268.529,166.358z"/><path fill="#E6463C" d="M268.163,166.272 C277.62,171.139 283.701,178.21 285.652,188.902 C286.443,201.394 282.047,211.109 271.464,218.052 C262.049,222.684 252.83,223.202 243.169,218.347 C232.609,211.588 227.576,202.297 228.161,189.645 C230.404,179.239 235.464,171.356 245.221,166.573 C252.901,163.762 260.337,163.342 268.163,166.272z"/>
  </g>
  <g transform="translate(555,96) rotate(-53,20,25) scale(0.060)" opacity="0.07">
    <path fill="#00FFCB" d="M271.233,218.224 C271.264,284.173 271.323,350.121 271.293,416.07 C271.289,425.227 265.389,431.29 257.017,431.3 C248.47,431.309 242.7,425.148 242.695,415.605 C242.665,350.155 242.697,284.706 243.137,218.863 C252.83,223.202 262.049,222.684 271.233,218.224z"/><path fill="#00FFCB" d="M228.125,189.213 C197.602,165.427 170.038,138.858 149.443,105.712 C145.955,100.099 145.474,94.404 149.217,88.852 C152.61,83.819 157.789,81.471 163.53,83.13 C167.066,84.151 171.15,86.534 173.028,89.533 C191.956,119.77 217.254,143.912 244.919,166.36 C235.464,171.356 230.404,179.239 228.125,189.213z"/><path fill="#00FFCB" d="M268.529,166.358 C296.365,144.336 321.842,120.12 340.711,89.634 C345.241,82.317 353.859,80.54 360.721,84.907 C367.5,89.22 369.371,97.697 364.9,105.085 C350.366,129.095 331.677,149.602 310.912,168.278 C302.995,175.4 294.638,182.032 285.961,188.736 C283.701,178.21 277.62,171.139 268.529,166.358z"/><path fill="#E6463C" d="M268.163,166.272 C277.62,171.139 283.701,178.21 285.652,188.902 C286.443,201.394 282.047,211.109 271.464,218.052 C262.049,222.684 252.83,223.202 243.169,218.347 C232.609,211.588 227.576,202.297 228.161,189.645 C230.404,179.239 235.464,171.356 245.221,166.573 C252.901,163.762 260.337,163.342 268.163,166.272z"/>
  </g>
  <g transform="translate(611,41) rotate(8,20,25) scale(0.061)" opacity="0.08">
    <path fill="#00FFCB" d="M271.233,218.224 C271.264,284.173 271.323,350.121 271.293,416.07 C271.289,425.227 265.389,431.29 257.017,431.3 C248.47,431.309 242.7,425.148 242.695,415.605 C242.665,350.155 242.697,284.706 243.137,218.863 C252.83,223.202 262.049,222.684 271.233,218.224z"/><path fill="#00FFCB" d="M228.125,189.213 C197.602,165.427 170.038,138.858 149.443,105.712 C145.955,100.099 145.474,94.404 149.217,88.852 C152.61,83.819 157.789,81.471 163.53,83.13 C167.066,84.151 171.15,86.534 173.028,89.533 C191.956,119.77 217.254,143.912 244.919,166.36 C235.464,171.356 230.404,179.239 228.125,189.213z"/><path fill="#00FFCB" d="M268.529,166.358 C296.365,144.336 321.842,120.12 340.711,89.634 C345.241,82.317 353.859,80.54 360.721,84.907 C367.5,89.22 369.371,97.697 364.9,105.085 C350.366,129.095 331.677,149.602 310.912,168.278 C302.995,175.4 294.638,182.032 285.961,188.736 C283.701,178.21 277.62,171.139 268.529,166.358z"/><path fill="#E6463C" d="M268.163,166.272 C277.62,171.139 283.701,178.21 285.652,188.902 C286.443,201.394 282.047,211.109 271.464,218.052 C262.049,222.684 252.83,223.202 243.169,218.347 C232.609,211.588 227.576,202.297 228.161,189.645 C230.404,179.239 235.464,171.356 245.221,166.573 C252.901,163.762 260.337,163.342 268.163,166.272z"/>
  </g>
  <g transform="translate(785,69) rotate(-4,20,25) scale(0.070)" opacity="0.09">
    <path fill="#00FFCB" d="M271.233,218.224 C271.264,284.173 271.323,350.121 271.293,416.07 C271.289,425.227 265.389,431.29 257.017,431.3 C248.47,431.309 242.7,425.148 242.695,415.605 C242.665,350.155 242.697,284.706 243.137,218.863 C252.83,223.202 262.049,222.684 271.233,218.224z"/><path fill="#00FFCB" d="M228.125,189.213 C197.602,165.427 170.038,138.858 149.443,105.712 C145.955,100.099 145.474,94.404 149.217,88.852 C152.61,83.819 157.789,81.471 163.53,83.13 C167.066,84.151 171.15,86.534 173.028,89.533 C191.956,119.77 217.254,143.912 244.919,166.36 C235.464,171.356 230.404,179.239 228.125,189.213z"/><path fill="#00FFCB" d="M268.529,166.358 C296.365,144.336 321.842,120.12 340.711,89.634 C345.241,82.317 353.859,80.54 360.721,84.907 C367.5,89.22 369.371,97.697 364.9,105.085 C350.366,129.095 331.677,149.602 310.912,168.278 C302.995,175.4 294.638,182.032 285.961,188.736 C283.701,178.21 277.62,171.139 268.529,166.358z"/><path fill="#E6463C" d="M268.163,166.272 C277.62,171.139 283.701,178.21 285.652,188.902 C286.443,201.394 282.047,211.109 271.464,218.052 C262.049,222.684 252.83,223.202 243.169,218.347 C232.609,211.588 227.576,202.297 228.161,189.645 C230.404,179.239 235.464,171.356 245.221,166.573 C252.901,163.762 260.337,163.342 268.163,166.272z"/>
  </g>
  <g transform="translate(600,16) rotate(-49,20,25) scale(0.073)" opacity="0.09">
    <path fill="#00FFCB" d="M271.233,218.224 C271.264,284.173 271.323,350.121 271.293,416.07 C271.289,425.227 265.389,431.29 257.017,431.3 C248.47,431.309 242.7,425.148 242.695,415.605 C242.665,350.155 242.697,284.706 243.137,218.863 C252.83,223.202 262.049,222.684 271.233,218.224z"/><path fill="#00FFCB" d="M228.125,189.213 C197.602,165.427 170.038,138.858 149.443,105.712 C145.955,100.099 145.474,94.404 149.217,88.852 C152.61,83.819 157.789,81.471 163.53,83.13 C167.066,84.151 171.15,86.534 173.028,89.533 C191.956,119.77 217.254,143.912 244.919,166.36 C235.464,171.356 230.404,179.239 228.125,189.213z"/><path fill="#00FFCB" d="M268.529,166.358 C296.365,144.336 321.842,120.12 340.711,89.634 C345.241,82.317 353.859,80.54 360.721,84.907 C367.5,89.22 369.371,97.697 364.9,105.085 C350.366,129.095 331.677,149.602 310.912,168.278 C302.995,175.4 294.638,182.032 285.961,188.736 C283.701,178.21 277.62,171.139 268.529,166.358z"/><path fill="#E6463C" d="M268.163,166.272 C277.62,171.139 283.701,178.21 285.652,188.902 C286.443,201.394 282.047,211.109 271.464,218.052 C262.049,222.684 252.83,223.202 243.169,218.347 C232.609,211.588 227.576,202.297 228.161,189.645 C230.404,179.239 235.464,171.356 245.221,166.573 C252.901,163.762 260.337,163.342 268.163,166.272z"/>
  </g>
  <text x="792" y="215" text-anchor="middle" font-family="Inter, -apple-system, BlinkMacSystemFont, sans-serif" font-size="56" letter-spacing="3" fill="#F0F6FC">
    <tspan font-weight="900">BET</tspan><tspan font-weight="300">AUTOPSY</tspan>
  </text>
</svg>
