<svg width="640" height="640" viewBox="0 0 640 640" fill="none" xmlns="http://www.w3.org/2000/svg">
  <rect width="640" height="640" fill="#0d1117"/>
  <!--
    Canonical proportions from logo.tsx IncisionMark:
    height=380, w=228 (h*0.6), armEnd=95 (h*0.25), sw=10, dotR=13, epR=6
    padX=15, padY=15, cx=129, cy=110, viewW=258, viewH=410
    Control points: Q(padX+w*0.15, padY+armEnd*0.5) = Q(49.2, 62.5)
    Centered in 640x640: translate((640-258)/2, (640-410)/2) = (191, 115)
  -->
  <g transform="translate(145, 80) scale(0.82)">
    <path fill="#00FFCB" d="M271.233,218.224 C271.264,284.173 271.323,350.121 271.293,416.07 C271.289,425.227 265.389,431.29 257.017,431.3 C248.47,431.309 242.7,425.148 242.695,415.605 C242.665,350.155 242.697,284.706 243.137,218.863 C252.83,223.202 262.049,222.684 271.233,218.224z"/>
    <path fill="#00FFCB" d="M228.125,189.213 C197.602,165.427 170.038,138.858 149.443,105.712 C145.955,100.099 145.474,94.404 149.217,88.852 C152.61,83.819 157.789,81.471 163.53,83.13 C167.066,84.151 171.15,86.534 173.028,89.533 C191.956,119.77 217.254,143.912 244.919,166.36 C235.464,171.356 230.404,179.239 228.125,189.213z"/>
    <path fill="#00FFCB" d="M268.529,166.358 C296.365,144.336 321.842,120.12 340.711,89.634 C345.241,82.317 353.859,80.54 360.721,84.907 C367.5,89.22 369.371,97.697 364.9,105.085 C350.366,129.095 331.677,149.602 310.912,168.278 C302.995,175.4 294.638,182.032 285.961,188.736 C283.701,178.21 277.62,171.139 268.529,166.358z"/>
    <path fill="#E6463C" d="M268.163,166.272 C277.62,171.139 283.701,178.21 285.652,188.902 C286.443,201.394 282.047,211.109 271.464,218.052 C262.049,222.684 252.83,223.202 243.169,218.347 C232.609,211.588 227.576,202.297 228.161,189.645 C230.404,179.239 235.464,171.356 245.221,166.573 C252.901,163.762 260.337,163.342 268.163,166.272z"/>
  </g>
</svg>
