<svg version="1.2" xmlns="http://www.w3.org/2000/svg" viewBox="0 0 202 55" width="200" height="54">
	<style>
		.s0 { fill: #ffffff } 
		.s1 { fill: #c0a971 } 
	</style>
	<path class="s0" d="m81.9 32.3c0 3.7-2.7 5.8-8.2 5.8h-10v-21.8h9.4c4.9 0 7.7 2.1 7.7 5.6 0 2.5-1.3 4.1-3.3 5 2.7 0.6 4.4 2.5 4.4 5.4zm-15.9-14.1v7.9h6.9c3.5 0 5.5-1.3 5.5-4 0-2.7-2-4-5.5-4h-6.9zm13.6 13.9c0-2.8-2.1-4.1-5.9-4.1h-7.7v8.2h7.7c3.8 0 5.9-1.2 5.9-4.1zm21.2 4v2h-15.4v-21.8h14.9v2h-12.6v7.8h11.3v2h-11.3v8.1h13.1zm9.7-17.8h-7.7v-2h17.6v2h-7.7v19.8h-2.3v-19.8zm31.9 19.8l-0.1-11.6-5.6 9.4h-2.7l-5.6-9.1v11.2h-5.7v-21.7h5.1l7.7 12.6 7.5-12.6h5.1l0.1 21.8zm24.6-11.3h5.4v9c-2.5 1.8-6 2.8-9.2 2.8-6.9 0-12-4.7-12-11.3 0-6.6 5.1-11.3 12.1-11.3 4.1 0 7.4 1.4 9.5 4l-3.9 3.5c-1.5-1.6-3.2-2.4-5.3-2.4-3.7 0-6.2 2.5-6.2 6.2 0 3.7 2.5 6.2 6.2 6.2 1.2 0 2.2-0.2 3.3-0.7v-6zm29.1 11.3l-0.1-11.5-5.6 9.4h-2.7l-5.6-9.1v11.2h-5.7v-21.8h5.1l7.7 12.6 7.5-12.6h5.1l0.1 21.8z"/>
	<path class="s1" d="m2.8 22.4c0 4.8 0.8 9.3 3.2 13v-3.2c0-4 3.2-6.8 6.5-8.6-3.4 1.1-7.1 0.3-9.7-1.2zm-0.6-3.9c0.9 0.6 2.2 0.9 3.5 0.8 1.1 0.8 2.6-1.4 4.2-1.4 2.3-0.3 5.2-0.6 6.8 1.4l-0.8-1.5c-2.2-0.2-4-0.9-5.7-1.9-3.4-1.5-5.1 3.4-8 2.6zm3.4 0.5h-1.1c-0.2-0.6 1.5-1.7 2-0.9zm-5.4-8.4c1.1 0.3 2.2 0.6 3.2 0.6 2.3-0.9 2.9-2.8 2-5.2-1.4-2-3.2-3.1-5.2-3.5zm15.4 43.9c0.3-0.3 0.8-0.8 1.1-1.2 6.2-8-5.9-12.7-5.6-20.4 0.3-3.1 2-5.4 4-7.9l-0.1-0.2c-1.9 1.9-2.6 3.1-3.9 4.9-3.7 7.6 1.5 18.1-3.9 24.5zm25-27.2c0 11.1-5.2 20.8-13.4 27.2h27.2v-54.3h-27.2c8.1 6.1 13.4 16 13.4 27.1z"/>
	<path class="s1" d="m0.2 54.5h4.6l1.1-1.1c6.3-8.6-1.2-14.7-5.9-21.5zm12.8-54.3h-12.8v0.9c1.2 0.2 2.6 0.6 3.7 1.1 2.6 1.5 4.6 4 4.3 7.1l5.7-0.6c0.8-1.9 1.1-4.8 0.3-6.3-0.3-1-0.8-1.8-1.2-2.2zm2.6 0c1.2 1.7 1.2 3.8 1.4 5.5 2.3-1.7 5.1-2.8 8-2-2-1.5-3.4-2.8-5.9-3.7zm16.3 39.2c0.6-5.1 0.2-10.5-3.5-14-0.8-0.2-1.9 0.3-2.5-0.5-1.7 1.5-3.9 2.2-5.4 3.9-1.7 0.5-3.4-0.6-5.1-0.9v-0.6c-2.3 1.5-1.7 4.6-2.2 6.9 0.6 2.6 3.5 3.7 5.4 5.2 2.9 0.5 5.6-0.8 8-1.7 0.5 0.5 1.1 0.8 0.8 1.4-2 2.8-4.9 4-8.3 3.7 2 3.9 0.6 8.3-1.5 11.7h2c6.2-2.8 11.9-7.1 12.3-15.1zm-11.1-0.5c-0.8-0.6-0.5-1.7-0.5-2.5l0.5-0.5c0.8 2.5 2.8-0.5 4.3-0.2 0.8-0.3 0.5-1.4 1.2-1.2 1.3 3.9-3.3 3.2-5.5 4.4zm6.2-11.1l-0.5 1.2-0.6-1.5c-1.4 0.3-2.8 0.8-3.5 2.3-0.2 0.5 0.2 1.2-0.3 1.5-0.9-0.2-0.5-1.7-0.5-2.6 1.1-1.1 4-3.4 5.1-2.5 0.3 0.2 0.5 1 0.3 1.6z"/>
	<path class="s1" d="m36.4 18.5c-1.7-5.9-6.9-13.7-13.9-13.3-2.6 0.2-5.2 2.2-6.2 3.7 1.9 1.1 3.9 2.6 5.6 4.2-0.2 0.6 0.3 1.4-0.5 1.7-0.9-0.8-1.7-2.6-2.9-2 0.9 2 3.4 2.2 5.2 2.6 0.8 0.8 0.5 2 2 1.4 0.8 0.2 1.1 1.1 1.2 1.7-1.2 2.3-4.6 0.8-6.5 1.2 1.5 0.6 3.2 0.8 4.6 1.7 1.4 0.9 1.9-1.2 2.5-2 2.5 0.6 1.1 3.2 2.2 4.6 5.2 5.4 4.2 15 1.5 21.1 7.4-6.2 6.8-20.7 5.2-26.6z"/>
</svg>