<?xml version="1.0" encoding="utf-8"?>
<!-- Generator: Adobe Adobe Illustrator 24.2.0, SVG Export Plug-In . SVG Version: 6.00 Build 0)  -->
<svg version="1.1" id="Layer_1" xmlns="http://www.w3.org/2000/svg" xmlns:xlink="http://www.w3.org/1999/xlink" x="0px" y="0px"
	 width="205.8px" height="124.5px" viewBox="0 0 205.8 124.5" style="enable-background:new 0 0 205.8 124.5;" xml:space="preserve"
	>
<style type="text/css">
	.st0{fill-rule:evenodd;clip-rule:evenodd;fill:#6A46F3;}
	.st1{fill-rule:evenodd;clip-rule:evenodd;fill:#FFFFFF;}
	.st2{fill:#FFFFFF;}
</style>
<g transform="translate(44.696)">
	<path class="st0" d="M11.3,37.3C20.8,18.1,40.3,5.9,61.8,5.9c22.1,0,42.7,13.8,51.5,33.5c1.6,1.3,2.9,2.9,3.8,4.7
		c0.9-1.2,2-2.4,3.2-3.3C111.2,16.3,87.9,0,61.8,0C35,0,14.4,15.4,4.8,37.3H11.3z"/>
	<path class="st0" d="M117.8,67.7c-2.9,28.8-27.1,50.8-56.1,50.9c-29.2,0-51.6-20.8-55.7-47.9c-0.6,0.1-1.2,0.1-1.9,0.1
		c-1.5,0-2.9-0.4-4.2-1.1c4.1,34.1,35.1,58.4,69.3,54.3c28.2-3.4,50.5-25.5,54.2-53.6C121.4,70,119.5,69.1,117.8,67.7L117.8,67.7z"
		/>
</g>
<g transform="translate(0 27.728)">
	<path class="st1" d="M51.6,31.8c0-0.3,0-0.6,0.1-0.8l4.6-17.7h-7.7L47.9,16h-0.1c-1-1.9-3-3.2-5.2-3.1c-6.9,0-12.9,8.1-12.9,17.4
		c0,5.2,3.6,9,7.5,9c2.7,0,5.3-1.4,6.7-3.8h0.1c0.5,2.3,2.5,3.9,4.9,3.9c1.4,0.1,2.9-0.3,4.1-1.1l1.4-5.5c-0.5,0.2-1,0.3-1.5,0.2
		C52.1,32.9,51.6,32.5,51.6,31.8L51.6,31.8z M40.1,33.1c-1.5,0-2.4-1.5-2.4-4.2c0-4.8,2.5-9.9,5.8-9.9c1.4,0,2.4,1.6,2.4,4.1
		C46,27.5,43.3,33.1,40.1,33.1L40.1,33.1z"/>
	<path class="st1" d="M25.5,0l-4,15.3h-7.4l4-15.3h-7.2C9.5,2.7,6.6,4.3,3.5,4.1L2.1,9.3c0.4,0,0.9,0.1,1.3,0.1C5,9.4,6.6,9,8,8.4
		L0,38.9h8.1l4.5-17.2h7.4l-4.5,17.2h8.1L33.6,0H25.5z"/>
	<path class="st1" d="M93,15.5L93,15.5c-1.2-1.7-3.1-2.7-5.1-2.6c-7,0-12.9,8.1-12.9,17.4c0,5.2,3.6,9,7.5,9c2.6,0,5-1.3,6.4-3.5H89
		l-0.8,3.2h6.7L105,0H97L93,15.5L93,15.5z M85.2,33.1c-1.5,0-2.4-1.5-2.4-4.2c0-4.8,2.5-9.9,5.8-9.9c1.4,0,2.4,1.6,2.4,4.1
		C91.1,27.5,88.5,33.1,85.2,33.1z"/>
	<path class="st1" d="M75.2,12.9c-2.4,0-4.8,2.2-5.9,4h-0.1l0.9-3.6h-7.7l-6.7,25.6h7.9l3.2-12.1c0.8-3.3,2.8-6.8,5.9-6.8
		c0.8,0,1.6,0.2,2.3,0.6l2-7.5C76.4,13,75.8,12.9,75.2,12.9L75.2,12.9z"/>
	<path class="st1" d="M200.9,41.5c-1.6,0-2.2-0.8-2.2-2.4c0-0.9,0-1.5,0-2.5c0-2.9-1.4-5.9-3.2-7.2v-0.1c4.5-0.9,10.2-4.5,10.2-10.3
		c0-3.3-2.5-6.1-6.8-6.1c-2.5,0-4.8,1.1-6.5,2.9h-0.1L196.6,0h-7.9l-10.2,38.9h7.9l2.1-7.9c2.3,0.5,3.8,2.6,3.7,4.9
		c0,2.2-0.3,3.5-0.3,5.5c0,3.8,2.8,6.3,7,6.3c1.9,0,3.7-0.6,5.3-1.7L203,41C202.4,41.3,201.7,41.5,200.9,41.5L200.9,41.5z
		 M189.7,26.3c0.8-4,4.2-7.9,7-7.9c0.9-0.1,1.8,0.6,1.9,1.5c0,0.1,0,0.2,0,0.3C198.6,23.1,194.7,26.3,189.7,26.3z"/>
	<path class="st1" d="M150.1,12.8c-7.9,0-13.8,7.5-13.8,16.2c0,5.9,4.1,10.1,9.1,10.1c8.1,0,14.2-7.5,14.2-15.7
		C159.5,16.9,155.6,12.8,150.1,12.8L150.1,12.8z M146.3,33.3c-1.4,0-2.5-1.6-2.5-4.5c0-5.1,2.4-10.2,5.7-10.2c1.7,0,2.6,2,2.6,4.6
		C152,27.6,149.3,33.3,146.3,33.3L146.3,33.3z"/>
	<path class="st1" d="M168.9,28.4c0-5.9,3.3-10,6.9-10c1.6,0.1,3.1,0.8,4.2,2l1.5-5.7c-1.9-1.2-4-1.8-6.3-1.9
		c-7.6,0-13.8,8-13.8,15.9c0,6.2,4.2,10.5,9.5,10.5c1.5,0,3-0.2,4.4-0.8l1.6-6c-1.2,0.7-2.5,1-3.9,0.9
		C170.5,33.4,168.9,31.8,168.9,28.4L168.9,28.4z"/>
	<path class="st1" d="M135.2,42.1c-1.5,0-2.7-1.2-2.7-2.7c0-0.1,0-0.1,0-0.2c0-2.2,0.3-4.6,0.3-7.2c0-4.6-2.4-8.1-4.3-9.3l0-0.1
		c5.3-1.1,10.7-6.6,10.7-12.2c0-6-3.8-10.3-12-10.3h-7.6c-1.6,2.7-4.5,4.3-7.6,4.1l-1.4,5.2c0.4,0,0.9,0.1,1.3,0.1
		c1.6,0,3.1-0.4,4.5-1.1l-8,30.5h8.1l3.9-14.9c2.6,0.7,4.9,3.9,4.9,7.5c0,3.8-1,5.8-1,9.9c0,4.5,3.5,7.3,8.4,7.3
		c2.2,0.1,4.3-0.7,6-2.1l-1.2-5.1C137,41.9,136.1,42.2,135.2,42.1L135.2,42.1z M123.7,18.2h-1.6l3.3-12.5h1.1c3.4,0,4.7,2.2,4.7,4.9
		C131.1,14.6,128.7,18.2,123.7,18.2z"/>
</g>
<g transform="translate(82.739 82.519)">
	<path class="st2" d="M0,0h6.9c4,0,7.2,1,7.2,4.8c0,1.7-0.9,3.3-2.4,4.1V9c2,0.5,3.4,2.4,3.3,4.5c0,3.9-3.4,5.6-7.5,5.6H0L0,0L0,0z
		 M6.8,7.5c1.6,0,2.4-0.8,2.4-1.9S8.4,3.9,6.8,3.9H5.1v3.6L6.8,7.5L6.8,7.5z M7.1,15.2c2,0,2.9-0.7,2.9-2.1s-0.9-1.9-2.9-1.9H5.1
		v4.1L7.1,15.2z"/>
	<path class="st2" d="M17.4,0h12.3v4.2h-7.3v3h6.2v4.2h-6.2v3.4H30v4.2H17.4V0L17.4,0z"/>
	<path class="st2" d="M37.4,4.2h-5.1V0h15.2v4.2h-5.1v14.9h-5.1L37.4,4.2L37.4,4.2z"/>
</g>
</svg>
