<svg width="128" height="33" viewBox="0 0 128 33" fill="none" xmlns="http://www.w3.org/2000/svg">
<path d="M47.9183 15.7789H51.5729C52.7129 15.7789 53.6182 15.4774 54.2887 14.8745C54.9593 14.2492 55.2946 13.4229 55.2946 12.3956C55.2946 11.3461 54.9593 10.5198 54.2887 9.91681C53.6405 9.29152 52.7352 8.97887 51.5729 8.97887H47.9183V15.7789ZM52.1429 19.7652H47.8848V28.7091H43.2578V4.95913H52.1429C54.4676 4.95913 56.3452 5.65142 57.7757 7.036C59.2286 8.42057 59.9551 10.196 59.9551 12.3622C59.9551 14.5283 59.2286 16.3037 57.7757 17.6883C56.3452 19.0729 54.4676 19.7652 52.1429 19.7652Z" fill="white"/>
<path d="M67.7151 28.7091H63.2558V12.2282H67.7151V28.7091ZM62.7194 6.83501C62.7194 6.07572 62.9876 5.4281 63.524 4.89213C64.0605 4.33384 64.7087 4.05469 65.4687 4.05469C66.2287 4.05469 66.8769 4.32267 67.4134 4.85864C67.9498 5.3946 68.218 6.05339 68.218 6.83501C68.218 7.57196 67.9498 8.20842 67.4134 8.74439C66.8769 9.28035 66.2287 9.54833 65.4687 9.54833C64.7087 9.54833 64.0605 9.28035 63.524 8.74439C62.9876 8.20842 62.7194 7.57196 62.7194 6.83501Z" fill="white"/>
<path d="M88.4824 12.2282L81.8773 19.1622L88.6166 28.7091H83.1514L78.7927 22.4115L76.9486 24.3544V28.7091H72.4893V4.45666H76.9486V18.3583L82.6485 12.2282H88.4824Z" fill="white"/>
<path d="M107.211 12.2282L100.606 19.1622L107.345 28.7091H101.88L97.5216 22.4115L95.6775 24.3544V28.7091H91.2182V4.45666H95.6775V18.3583L101.377 12.2282H107.211Z" fill="white"/>
<path d="M114.406 28.7091H109.947V12.2282H114.406V28.7091ZM109.411 6.83501C109.411 6.07572 109.679 5.4281 110.215 4.89213C110.752 4.33384 111.4 4.05469 112.16 4.05469C112.92 4.05469 113.568 4.32267 114.105 4.85864C114.641 5.3946 114.909 6.05339 114.909 6.83501C114.909 7.57196 114.641 8.20842 114.105 8.74439C113.568 9.28035 112.92 9.54833 112.16 9.54833C111.4 9.54833 110.752 9.28035 110.215 8.74439C109.679 8.20842 109.411 7.57196 109.411 6.83501Z" fill="white"/>
<path d="M124.679 7.30398V12.2282H127.999V16.1809H124.679V23.0815C124.679 23.7737 124.836 24.265 125.149 24.5554C125.462 24.8457 125.953 24.9908 126.624 24.9908C127.227 24.9908 127.686 24.9462 127.999 24.8568V28.5416C127.35 28.8096 126.512 28.9436 125.484 28.9436C123.875 28.9436 122.6 28.4969 121.662 27.6037C120.723 26.6881 120.253 25.4375 120.253 23.8519V16.1809H117.269V12.2282H118.108C118.935 12.2282 119.561 11.9937 119.985 11.5247C120.432 11.0334 120.656 10.3969 120.656 9.61533V7.30398H124.679Z" fill="white"/>
<path d="M16.3066 14.6127L16.3032 14.6093L16.2997 14.6127L10.2115 8.63513L10.215 8.63174L9.28176 7.71551C7.60055 6.06486 7.60055 3.38863 9.28176 1.73799C10.963 0.0873381 13.6888 0.0873381 15.37 1.73799L16.3032 2.65422L17.2364 1.73799C18.9176 0.0873413 21.6434 0.0873415 23.3246 1.73799C25.0058 3.38864 25.0058 6.06487 23.3246 7.71551L22.3914 8.63174L22.3948 8.63513L16.3066 14.6127Z" fill="white"/>
<path d="M16.2928 18.3873L16.2963 18.3907L16.2997 18.3873L22.388 24.3649L22.3845 24.3683L23.3177 25.2845C24.9989 26.9351 24.9989 29.6114 23.3177 31.262C21.6365 32.9127 18.9107 32.9127 17.2295 31.262L16.2963 30.3458L15.3631 31.262C13.6819 32.9127 10.9561 32.9127 9.27487 31.262C7.59366 29.6114 7.59366 26.9351 9.27487 25.2845L10.2081 24.3683L10.2046 24.3649L16.2928 18.3873Z" fill="white"/>
<path d="M18.222 16.5068L18.2186 16.5102L24.3068 22.4877L24.3103 22.4843L25.2435 23.4005C26.9247 25.0512 29.6505 25.0512 31.3317 23.4005C33.0129 21.7499 33.0129 19.0736 31.3317 17.423L30.3985 16.5068L31.3317 15.5905C33.0129 13.9399 33.0129 11.2637 31.3317 9.61301C29.6505 7.96236 26.9247 7.96236 25.2435 9.61301L24.3103 10.5292L24.3068 10.5259L18.2186 16.5034L18.222 16.5068Z" fill="white"/>
<path d="M14.374 16.4966L14.3705 16.5L14.374 16.5034L8.28578 22.4809L8.28233 22.4775L7.34913 23.3938C5.66791 25.0444 2.94213 25.0444 1.26091 23.3938C-0.420304 21.7431 -0.420303 19.0669 1.26091 17.4162L2.19411 16.5L1.26091 15.5838C-0.4203 13.9331 -0.420299 11.2569 1.26092 9.60624C2.94213 7.95559 5.66792 7.9556 7.34913 9.60624L8.28233 10.5225L8.28578 10.5191L14.374 16.4966Z" fill="white"/>
</svg>
