<svg viewBox="0 0 1000 1000" xmlns="http://www.w3.org/2000/svg"><defs><clipPath id="clip-path"><circle cx="-462.17" cy="446" fill="none" r="526.28"></circle></clipPath><clipPath id="clip-path-2"><circle cx="496.02" cy="500.12" fill="none" r="485.81"></circle></clipPath></defs><g clip-path="url(#clip-path)"><circle cx="-460.93" cy="448.27" fill="none" r="525.32"></circle></g><g clip-path="url(#clip-path-2)"><polygon fill="#f0f0f0" points="678.05 668.65 561.66 668.65 561.66 568.02 664.72 577.72 678.05 668.65"></polygon><path d="M495.78,957.19a461.93,461.93,0,0,1-56.52-3.5c-100-12.38-184.17-43.09-250.09-91.26C69.29,774.83,20.35,634.83,43.69,446.31A455,455,0,0,1,494.56,47.24a462.06,462.06,0,0,1,56.52,3.5,455,455,0,0,1-55.3,906.45Z" fill="#f0f0f0"></path><path d="M494.6,77.24a429.36,429.36,0,0,1,52.79,3.28,425,425,0,0,1-51.62,846.67,431.72,431.72,0,0,1-52.83-3.27,609.61,609.61,0,0,1-99.67-20.3c-52.28-15.47-98.17-37.48-136.4-65.41A332.13,332.13,0,0,1,146,781a318.65,318.65,0,0,1-47.3-78.84C69.75,633.26,61.27,548.43,73.46,450A425.07,425.07,0,0,1,494.59,77.24h0m0-60c-241.22,0-450.23,179.84-480.64,425.38-58.61,473.29,338.2,530.51,421.65,540.85a490.78,490.78,0,0,0,60.2,3.72C737,987.19,946,807.35,976.41,561.81,1009.33,296,820.55,53.89,554.76,21a488.72,488.72,0,0,0-60.2-3.73Z" fill="#e0b400"></path><path d="M392.93,632.64c-26.45-79.29-11.72-262.56,14.2-378.44a4.63,4.63,0,0,0,.12-.91l3.93-94a2.54,2.54,0,0,0,0-.39l-.52-16.48a5.27,5.27,0,0,1,1.48-3.85l7.71-8.05a5.53,5.53,0,0,1,6.06-1.28l10.85,4.39a5.47,5.47,0,0,1,2.54,2.09l9.92,15.21a5.6,5.6,0,0,0,.36.49l4.5,5.44a5.5,5.5,0,0,0,9.59-2.2h0a6.75,6.75,0,0,1,8-5.09,5.08,5.08,0,0,1,2.73,1.69l6.34,7.23a5.73,5.73,0,0,0,1.32,1.08A18.4,18.4,0,0,1,488,165l8.42,12.91a5,5,0,0,1,.36.64l10.76,22.75a5.31,5.31,0,0,1,.45,1.45l1.35,8.47a17,17,0,0,0,3.59,8l3,3.69a20.26,20.26,0,0,0,5.53,4.73L534,235a5.53,5.53,0,0,0,2.41.75l43.37,3,31.33,1.65a5.4,5.4,0,0,1,2,.49l19.73,9a5.21,5.21,0,0,1,1.11.67l10.78,8.46a6.56,6.56,0,0,1,.67.62l9.5,10.41.32.32,7.46,6.93a5.63,5.63,0,0,0,3.25,1.45l26.93,2.53a5.41,5.41,0,0,0,.9,0l26.68-1.83.54-.07,65.28-11a1.39,1.39,0,0,1,.5,0h0c6.73,1.69,13.36,6.39,13.4,13.23l2.44,24.19a6.46,6.46,0,0,1-.14,2.19L792,351.94a14.29,14.29,0,0,1-1.13,3.07,5,5,0,0,1-1.2,1.5L683.27,448.86a5.34,5.34,0,0,0-1.72,2.87l-13.9,62.33c-.27,1.21-4,35.67-3.48,36.78,0,0-121.13,113.66-115.9,157.56" fill="#1b1b1b" stroke-miterlimit="10"></path><path d="M657.84,652.59,637,764.09l-19.88,63.6,16.57,188.63-213.53-2.66c-148.78-19.14-141-67.19-205.72-54l178.48-327" fill="#1b1b1b" stroke-miterlimit="10"></path><path d="M536.71,972.75s20-29.38,39.47-58.44c18.39-27.5,36.23-54.71,36-56.45-1.6-13,56.74-113,67.66-163.21,0,0,16.94-50.19-26.79-136.38" fill="#f0f0f0" stroke="#1b1b1b" stroke-miterlimit="10" stroke-width="14px"></path><path d="M672.68,580.45c-77.62,17.25-207.39,3-279.12,66.52C333.46,700.15,285.8,723.2,285.8,723.2c-9.34,4.72-77.13,28.34-128.58,35.3-48.12,6.51-105.72-9.64-118-28.08-13.3-19.95-14.64-35-16.83-52.57C16.86,633.66,4.23,605.35,6,573.62,7.19,552.24-.51,554,19.34,561,238.5,668.54,400.72,475,645,548.24" fill="#e0b400"></path><path d="M629.5,559.78c6.11-8.89,37.38-31.75,37.4-27.9.07,27.23.06,7.88,5.78,49.09" fill="#e0b400"></path></g></svg>