<svg version="1.1" id="Layer_1" xmlns="http://www.w3.org/2000/svg" xmlns:xlink="http://www.w3.org/1999/xlink" x="0px" y="0px"
	 width="100%" viewBox="0 0 4586 1050" enable-background="new 0 0 4586 1050" xml:space="preserve">
<path fill="#FFFFFF" opacity="1.000000" stroke="none" 
	d="
M4588.000000,690.000000 
	C4588.000000,810.644226 4588.000000,931.288513 4588.000000,1052.000000 
	C3248.604736,1052.000000 1909.209717,1052.000000 569.416504,1051.341797 
	C604.313171,1048.534546 638.857910,1042.125610 672.799255,1032.337402 
	C771.996094,1003.730225 855.601929,950.447998 923.772522,873.049377 
	C974.910095,814.989563 1011.128479,748.615295 1033.017334,674.397217 
	C1044.915283,634.055542 1051.633667,592.781677 1053.491333,550.881348 
	C1055.157104,513.311035 1052.748047,475.850647 1046.373779,438.657074 
	C1038.116821,390.478882 1023.576965,344.360626 1002.335632,300.387726 
	C975.743042,245.336945 940.759033,196.339462 897.075500,153.388626 
	C868.908569,125.694122 838.252808,101.357048 804.777954,80.583984 
	C733.436340,36.312382 655.704529,11.136299 572.109680,3.302571 
	C572.077942,2.867986 572.000000,2.000000 572.000000,2.000000 
	C1910.424438,2.000000 3248.848877,2.000000 4588.000000,2.000000 
	C4588.000000,163.394440 4588.000000,324.789948 4587.072754,487.240509 
	C4525.679688,488.396912 4465.211426,488.237213 4404.822266,488.385315 
	C4404.822266,518.420776 4404.822266,546.955383 4404.822266,576.484497 
	C4426.107422,576.484497 4446.923828,576.484497 4467.791992,576.484497 
	C4467.791992,584.692078 4467.791992,591.893127 4467.791992,599.301819 
	C4444.011230,605.040283 4420.796387,605.528503 4397.822266,597.984009 
	C4380.948242,592.442749 4369.118652,581.284363 4364.092773,564.077637 
	C4361.697754,555.877502 4360.914551,547.208252 4359.379395,538.755554 
	C4356.566406,523.268433 4359.419434,508.317780 4364.582520,493.873047 
	C4368.835938,481.973389 4376.947754,472.912628 4388.023438,466.421692 
	C4402.369629,458.013489 4417.931152,453.484497 4434.293457,452.430206 
	C4477.389160,449.653351 4519.861328,453.001831 4561.020508,467.245087 
	C4563.618652,468.144226 4566.390137,468.542633 4569.404297,469.249878 
	C4569.404297,427.673676 4569.404297,387.077881 4569.404297,346.385101 
	C4568.099609,345.652557 4567.026855,344.796143 4565.805176,344.401337 
	C4534.010742,334.127930 4501.190430,329.664886 4467.984375,328.488464 
	C4441.438965,327.548004 4414.857910,328.016907 4388.425293,331.679047 
	C4356.286621,336.131805 4325.290527,344.142731 4296.867676,360.303009 
	C4259.106445,381.772430 4233.020996,412.969299 4220.245605,454.626556 
	C4206.601562,499.115448 4206.787598,544.242310 4216.736816,589.312439 
	C4223.687988,620.803955 4238.369629,648.623108 4261.783203,671.102905 
	C4285.325684,693.706421 4313.836914,707.750244 4345.210449,715.837769 
	C4387.099609,726.635803 4429.617676,728.250977 4472.641113,724.529602 
	C4513.615234,720.985474 4551.962891,709.581543 4588.000000,690.000000 
M1800.806152,720.323730 
	C1807.206787,719.616760 1804.190796,714.664124 1804.203857,711.747620 
	C1804.398926,668.101135 1804.328369,624.453491 1804.367432,580.806152 
	C1804.369507,578.504456 1804.788818,576.203186 1805.197754,572.021118 
	C1841.087158,622.535339 1875.708008,671.263977 1910.117920,719.695679 
	C1951.418457,719.695679 1992.223511,719.695679 2032.954712,719.695679 
	C2032.954712,590.993408 2032.954712,462.935638 2032.954712,334.759613 
	C1984.380615,334.759613 1936.524292,334.759613 1887.478638,334.759613 
	C1887.478638,383.447021 1887.478638,431.717133 1887.478638,479.987274 
	C1884.679077,478.791199 1883.463989,477.310211 1882.352905,475.755127 
	C1850.466309,431.128448 1818.473877,386.576385 1786.860596,341.756927 
	C1782.935669,336.192383 1778.951294,334.114197 1772.230957,334.176147 
	C1737.249390,334.498718 1702.263184,334.312927 1667.278687,334.351929 
	C1664.427124,334.355103 1661.576050,334.717773 1658.767212,334.910492 
	C1658.767212,463.679260 1658.767212,591.510803 1658.767212,720.337341 
	C1705.744629,720.337341 1752.290527,720.337341 1800.806152,720.323730 
M3763.685059,569.081116 
	C3766.504395,583.038269 3768.434326,597.247986 3772.312012,610.904724 
	C3783.328613,649.703308 3805.799561,679.781799 3841.692871,699.364014 
	C3872.682617,716.270935 3906.280273,723.127014 3940.955566,725.550293 
	C3963.506836,727.126221 3986.109619,726.884216 4008.659668,724.373230 
	C4028.512207,722.162598 4048.020264,718.507874 4066.879395,711.855225 
	C4119.451660,693.309875 4153.368164,657.654541 4166.498535,602.977661 
	C4173.583496,573.474915 4176.877441,543.644775 4174.326660,513.316284 
	C4173.021484,497.802795 4172.373047,482.166595 4169.880371,466.837402 
	C4166.674316,447.119904 4160.491699,428.130432 4150.838379,410.470276 
	C4134.347656,380.301941 4109.085449,360.224762 4077.794922,347.052460 
	C4047.689209,334.378693 4015.979492,329.584686 3983.671875,328.492340 
	C3968.433105,327.977142 3953.125977,329.011536 3937.866211,329.706818 
	C3911.481934,330.909027 3885.934326,336.273376 3861.355225,346.020935 
	C3821.304932,361.904205 3792.249023,388.956512 3776.966064,429.748260 
	C3760.246338,474.374481 3759.357178,520.584351 3763.685059,569.081116 
M3429.000000,720.338196 
	C3463.982422,720.338196 3498.967041,720.586365 3533.946533,720.264465 
	C3565.330322,719.975708 3596.117920,715.607361 3625.517334,704.007080 
	C3666.851318,687.697510 3696.774170,659.907593 3712.568359,617.663025 
	C3720.790283,595.670898 3724.954590,572.928711 3726.021484,549.663330 
	C3727.563721,516.030212 3726.172607,482.578827 3716.093750,450.058777 
	C3703.768311,410.290192 3680.908936,378.992340 3643.613281,358.975952 
	C3612.142334,342.085693 3578.027588,335.207062 3543.012939,334.629486 
	C3478.729248,333.569061 3414.415527,334.318420 3350.114502,334.360321 
	C3347.605713,334.361938 3345.097168,334.848236 3342.811768,335.085541 
	C3342.811768,463.794952 3342.811768,591.625122 3342.811768,720.338196 
	C3371.190186,720.338196 3399.095215,720.338196 3429.000000,720.338196 
M2104.329102,341.591614 
	C2104.329102,467.701416 2104.329102,593.811218 2104.329102,720.338196 
	C2109.116455,720.338196 2112.434814,720.338196 2115.753174,720.338196 
	C2175.398926,720.338196 2235.044922,720.465576 2294.689941,720.284790 
	C2324.743408,720.193726 2354.248291,716.060303 2382.607666,705.699890 
	C2429.925781,688.413330 2462.529297,656.540344 2477.536865,607.962952 
	C2486.535400,578.835693 2488.891846,548.867188 2487.851318,518.439575 
	C2486.925781,491.382477 2483.383545,464.917542 2473.937988,439.451965 
	C2461.746338,406.583221 2441.510254,380.251373 2411.017334,362.204559 
	C2377.758545,342.520691 2341.055420,335.221405 2303.263184,334.606415 
	C2240.302246,333.581879 2177.312256,334.326813 2114.334473,334.328033 
	C2112.335205,334.328064 2110.335205,334.379852 2108.336914,334.342499 
	C2104.473633,334.270355 2104.238037,336.859680 2104.329102,341.591614 
M3276.061768,719.809265 
	C3275.816162,717.918030 3275.979980,715.852722 3275.261230,714.162598 
	C3267.990479,697.061401 3261.236328,679.696289 3253.041016,663.043152 
	C3241.760986,640.122742 3236.291016,614.217773 3218.016846,594.910461 
	C3223.048340,590.988342 3227.952637,587.545898 3232.425293,583.612671 
	C3251.385986,566.937805 3267.398926,547.988281 3276.095215,523.864075 
	C3289.200928,487.509186 3286.146240,451.330505 3272.945801,415.870056 
	C3262.500000,387.809875 3243.870117,366.141235 3217.421631,351.605591 
	C3196.298828,339.996887 3173.225830,334.746429 3149.531982,334.550964 
	C3075.574463,333.940765 3001.608643,334.321808 2927.645996,334.353333 
	C2925.427734,334.354279 2923.209473,334.741028 2920.955566,334.951233 
	C2920.955566,463.667206 2920.955566,591.744873 2920.955566,719.676636 
	C2969.710205,719.676636 3017.834717,719.676636 3066.287842,719.676636 
	C3066.466797,686.923584 3066.157471,654.815491 3066.470459,622.822083 
	C3079.742188,622.134705 3083.198975,624.023926 3087.999756,634.650085 
	C3094.696777,649.474060 3101.147217,664.409241 3107.712646,679.292664 
	C3113.725098,692.922852 3119.749756,706.547546 3125.821533,720.292847 
	C3175.723633,720.292847 3225.008057,720.292847 3276.061768,719.809265 
M1591.671509,345.375885 
	C1591.671509,341.861481 1591.671509,338.347107 1591.671509,334.784546 
	C1542.346558,334.784546 1494.474976,334.784546 1445.661255,334.784546 
	C1445.661255,338.807892 1445.661255,342.383942 1445.661255,345.959961 
	C1445.661255,412.622681 1445.721924,479.285522 1445.574341,545.947937 
	C1445.558350,553.206604 1444.874146,560.559448 1443.577148,567.701050 
	C1440.250122,586.020264 1427.648560,599.041870 1410.185425,601.539978 
	C1402.369995,602.658020 1394.119629,602.751404 1386.326904,601.579041 
	C1371.532715,599.353210 1360.004639,591.461487 1355.479126,576.709167 
	C1352.604980,567.340088 1350.617676,557.290955 1350.557373,547.532471 
	C1350.141968,480.205658 1350.338745,412.875092 1350.338745,345.545715 
	C1350.338745,342.003204 1350.338745,338.460693 1350.338745,335.106720 
	C1329.854126,333.179077 1211.925049,333.894165 1204.328491,335.986572 
	C1204.328491,339.503845 1204.328369,343.147339 1204.328369,346.790833 
	C1204.328369,418.453278 1204.134033,490.116699 1204.500732,561.777283 
	C1204.570068,575.296936 1205.972168,588.964172 1208.324219,602.286987 
	C1213.842285,633.541931 1229.459106,659.344360 1253.369019,680.097961 
	C1288.324585,710.439209 1330.429443,722.296265 1375.319214,725.379700 
	C1394.439819,726.693054 1413.866699,725.764282 1433.003906,724.110718 
	C1463.419800,721.482605 1492.420044,713.027893 1518.816406,697.311035 
	C1550.853638,678.235535 1573.733276,651.644714 1584.670166,615.355835 
	C1589.812134,598.295044 1591.428101,580.802063 1591.517700,563.277954 
	C1591.885986,491.284088 1591.671509,419.287262 1591.671509,345.375885 
M2540.325684,688.992004 
	C2540.325684,699.216858 2540.325684,709.441772 2540.325684,719.783813 
	C2643.925049,719.783813 2746.407715,719.783813 2849.255859,719.783813 
	C2849.255859,685.052917 2849.255859,650.880188 2849.255859,615.658447 
	C2835.292969,615.658447 2821.733154,615.658447 2808.173340,615.658447 
	C2794.841309,615.658447 2781.509033,615.658447 2768.177002,615.658447 
	C2754.511475,615.658447 2740.846191,615.685669 2727.180664,615.650696 
	C2713.681396,615.616150 2700.170410,615.810120 2686.877441,615.524475 
	C2686.877441,603.494263 2686.877441,592.954285 2686.877441,581.469177 
	C2733.890381,581.469177 2780.377686,581.469177 2827.079590,581.469177 
	C2827.079590,544.712769 2827.079590,508.915894 2827.079590,472.146667 
	C2780.023438,472.146667 2733.550537,472.146667 2686.786621,472.146667 
	C2686.786621,460.995209 2686.786621,450.823395 2686.786621,439.676361 
	C2700.788086,439.676361 2714.359131,439.676361 2727.930176,439.676361 
	C2741.262451,439.676361 2754.594482,439.676361 2767.926758,439.676361 
	C2781.592285,439.676361 2795.257812,439.722565 2808.923096,439.663269 
	C2822.411133,439.604736 2835.918945,439.932739 2849.183838,439.452271 
	C2849.183838,403.777527 2849.183838,369.551361 2849.183838,334.827454 
	C2746.234619,334.827454 2643.775635,334.827454 2540.325684,334.827454 
	C2540.325684,452.543945 2540.325684,569.769653 2540.325684,688.992004 
z"/>
<path fill="#FFCB0A" opacity="1.000000" stroke="none" 
	d="
M572.141418,3.737157 
	C655.704529,11.136299 733.436340,36.312382 804.777954,80.583984 
	C838.252808,101.357048 868.908569,125.694122 897.075500,153.388626 
	C940.759033,196.339462 975.743042,245.336945 1002.335632,300.387726 
	C1023.576965,344.360626 1038.116821,390.478882 1046.373779,438.657074 
	C1052.748047,475.850647 1055.157104,513.311035 1053.491333,550.881348 
	C1051.633667,592.781677 1044.915283,634.055542 1033.017334,674.397217 
	C1011.128479,748.615295 974.910095,814.989563 923.772522,873.049377 
	C855.601929,950.447998 771.996094,1003.730225 672.799255,1032.337402 
	C638.857910,1042.125610 604.313171,1048.534546 568.509216,1051.341797 
	C542.624878,1052.000000 517.249756,1052.000000 490.355591,1051.417480 
	C480.924225,1050.013184 473.010529,1049.204102 465.099762,1048.367188 
	C425.247498,1044.151001 386.689850,1034.522095 349.081299,1020.814758 
	C260.473297,988.519531 185.830963,936.005310 125.597290,863.740173 
	C59.683811,784.660767 19.807116,693.835266 7.637553,591.245789 
	C6.631072,582.761169 5.356701,574.308411 4.273201,564.973755 
	C3.369874,558.765442 6.698565,552.799683 2.000000,548.000000 
	C2.000000,534.624695 2.000000,521.249451 2.732375,506.540161 
	C3.813375,499.604462 4.162000,494.002777 4.970968,487.698181 
	C7.106840,471.492157 7.992158,455.854889 10.597521,440.509644 
	C20.756151,380.676544 40.354073,324.051666 70.206314,271.126160 
	C99.883881,218.510315 137.224609,172.058167 182.773895,132.280365 
	C220.589447,99.256340 262.163422,72.051857 307.710602,50.852097 
	C363.707214,24.788677 422.518494,9.479359 484.808136,3.975239 
	C490.445160,3.361531 495.222595,2.680765 500.000000,2.000000 
	C518.708435,2.000000 537.416931,2.000000 557.569275,2.621794 
	C563.389282,3.408110 567.765320,3.572634 572.141418,3.737157 
M658.620850,564.479980 
	C654.314270,564.880554 650.013855,565.371704 645.700073,565.667297 
	C614.807190,567.783997 583.872253,569.406799 553.028198,572.080933 
	C523.463257,574.644165 494.361847,579.984741 466.202240,589.827209 
	C436.382629,600.250000 410.898193,617.211609 387.657562,640.202148 
	C384.420410,642.518433 381.058136,644.679565 377.964752,647.174133 
	C330.711212,685.280273 277.297028,710.409485 218.029068,723.240417 
	C181.304306,731.191040 144.390839,734.722778 107.028870,728.036255 
	C101.567917,727.058960 96.072540,726.274048 88.839607,725.120422 
	C91.187981,730.299805 92.723129,733.897888 94.428101,737.413696 
	C115.806885,781.497498 143.313019,821.388367 176.846008,857.080322 
	C194.414810,875.780396 212.887451,893.532410 234.704437,909.436707 
	C315.717377,971.998474 407.615082,1004.781372 509.629517,1009.620361 
	C541.643005,1011.138916 573.546021,1009.187134 605.127319,1003.769653 
	C620.139282,1001.194397 634.908386,997.203430 651.367554,993.908081 
	C724.869324,974.603088 790.125610,939.666321 847.072876,889.505066 
	C975.925415,776.006836 1035.523193,604.285034 1002.193054,435.196869 
	C979.820740,321.699249 923.371887,228.014130 834.338257,154.486603 
	C759.950500,93.054306 674.293823,57.536259 578.152039,47.436607 
	C524.954407,41.848213 472.321014,44.928200 420.350098,57.187180 
	C309.956970,83.226906 219.356598,141.004166 149.239059,229.961563 
	C81.795601,315.526367 48.137402,413.486328 46.116787,522.362549 
	C46.050323,525.943909 46.108360,529.527649 46.108360,532.544373 
	C48.074253,533.627930 48.925285,534.155762 49.825550,534.578796 
	C51.029339,535.144409 52.266472,535.640442 53.497574,536.146240 
	C110.092232,559.397705 168.953522,564.864624 229.089401,556.963440 
	C257.430664,553.239746 285.570129,547.619385 313.568756,541.750183 
	C341.895416,535.812378 369.935059,528.505432 399.705475,521.838135 
	C401.017975,521.642456 402.349518,521.530823 403.640259,521.238831 
	C441.015991,512.783081 478.751129,506.493866 517.031555,504.413177 
	C568.320557,501.625397 618.738098,507.164398 667.835022,522.702881 
	C672.615967,524.216003 675.753601,523.274170 679.647949,520.630920 
	C684.804016,517.131287 690.626404,514.613281 696.465637,513.476562 
	C698.119568,528.639221 699.773499,543.801819 699.819092,559.464966 
	C694.767456,560.392395 689.715820,561.319824 683.116882,562.119629 
	C675.532043,562.994934 667.947266,563.870239 658.620850,564.479980 
z"/>
<path fill="#FFFFFF" opacity="1.000000" stroke="none" 
	d="
M4588.000000,689.062683 
	C4551.962891,709.581543 4513.615234,720.985474 4472.641113,724.529602 
	C4429.617676,728.250977 4387.099609,726.635803 4345.210449,715.837769 
	C4313.836914,707.750244 4285.325684,693.706421 4261.783203,671.102905 
	C4238.369629,648.623108 4223.687988,620.803955 4216.736816,589.312439 
	C4206.787598,544.242310 4206.601562,499.115448 4220.245605,454.626556 
	C4233.020996,412.969299 4259.106445,381.772430 4296.867676,360.303009 
	C4325.290527,344.142731 4356.286621,336.131805 4388.425293,331.679047 
	C4414.857910,328.016907 4441.438965,327.548004 4467.984375,328.488464 
	C4501.190430,329.664886 4534.010742,334.127930 4565.805176,344.401337 
	C4567.026855,344.796143 4568.099609,345.652557 4569.404297,346.385101 
	C4569.404297,387.077881 4569.404297,427.673676 4569.404297,469.249878 
	C4566.390137,468.542633 4563.618652,468.144226 4561.020508,467.245087 
	C4519.861328,453.001831 4477.389160,449.653351 4434.293457,452.430206 
	C4417.931152,453.484497 4402.369629,458.013489 4388.023438,466.421692 
	C4376.947754,472.912628 4368.835938,481.973389 4364.582520,493.873047 
	C4359.419434,508.317780 4356.566406,523.268433 4359.379395,538.755554 
	C4360.914551,547.208252 4361.697754,555.877502 4364.092773,564.077637 
	C4369.118652,581.284363 4380.948242,592.442749 4397.822266,597.984009 
	C4420.796387,605.528503 4444.011230,605.040283 4467.791992,599.301819 
	C4467.791992,591.893127 4467.791992,584.692078 4467.791992,576.484497 
	C4446.923828,576.484497 4426.107422,576.484497 4404.822266,576.484497 
	C4404.822266,546.955383 4404.822266,518.420776 4404.822266,488.385315 
	C4465.211426,488.237213 4525.679688,488.396912 4587.072754,488.147766 
	C4588.000000,554.708435 4588.000000,621.416931 4588.000000,689.062683 
z"/>
<path fill="#FFFFFE" opacity="1.000000" stroke="none" 
	d="
M483.948517,3.908181 
	C422.518494,9.479359 363.707214,24.788677 307.710602,50.852097 
	C262.163422,72.051857 220.589447,99.256340 182.773895,132.280365 
	C137.224609,172.058167 99.883881,218.510315 70.206314,271.126160 
	C40.354073,324.051666 20.756151,380.676544 10.597521,440.509644 
	C7.992158,455.854889 7.106840,471.492157 4.348313,487.564575 
	C2.843544,488.089264 2.421772,488.044647 2.000000,488.000000 
	C2.000000,326.146515 2.000000,164.293060 2.000000,2.000000 
	C162.041519,2.000000 322.083435,2.000000 483.078583,2.477822 
	C484.031799,2.955643 483.948517,3.908181 483.948517,3.908181 
z"/>
<path fill="#FFFFFE" opacity="1.000000" stroke="none" 
	d="
M4.206800,565.840820 
	C5.356701,574.308411 6.631072,582.761169 7.637553,591.245789 
	C19.807116,693.835266 59.683811,784.660767 125.597290,863.740173 
	C185.830963,936.005310 260.473297,988.519531 349.081299,1020.814758 
	C386.689850,1034.522095 425.247498,1044.151001 465.099762,1048.367188 
	C473.010529,1049.204102 480.924225,1050.013184 489.418274,1051.417480 
	C327.479553,1052.000000 164.959106,1052.000000 2.000000,1052.000000 
	C2.000000,890.625122 2.000000,729.249878 2.554404,566.934998 
	C3.474805,565.943848 3.840803,565.892334 4.206800,565.840820 
z"/>
<path fill="#FFEDA8" opacity="1.000000" stroke="none" 
	d="
M4.273201,564.973755 
	C3.840803,565.892334 3.474805,565.943848 2.554404,565.997681 
	C2.000000,560.599976 2.000000,555.199951 2.000000,548.899963 
	C6.698565,552.799683 3.369874,558.765442 4.273201,564.973755 
z"/>
<path fill="#FFEFB2" opacity="1.000000" stroke="none" 
	d="
M2.000000,488.899963 
	C2.421772,488.044647 2.843544,488.089264 3.887971,488.267517 
	C4.162000,494.002777 3.813375,499.604462 2.732375,505.603088 
	C2.000000,500.599976 2.000000,495.199951 2.000000,488.899963 
z"/>
<path fill="#FFEDAA" opacity="1.000000" stroke="none" 
	d="
M484.808136,3.975239 
	C483.948517,3.908181 484.031799,2.955643 484.015900,2.477822 
	C488.741119,2.000000 493.482208,2.000000 499.111664,2.000000 
	C495.222595,2.680765 490.445160,3.361531 484.808136,3.975239 
z"/>
<path fill="#FFECA6" opacity="1.000000" stroke="none" 
	d="
M572.109680,3.302571 
	C567.765320,3.572634 563.389282,3.408110 558.506592,2.621794 
	C562.083313,2.000000 566.166687,2.000000 571.125000,2.000000 
	C572.000000,2.000000 572.077942,2.867986 572.109680,3.302571 
z"/>
<path fill="#FFFFFF" opacity="1.000000" stroke="none" 
	d="
M1799.821289,720.330566 
	C1752.290527,720.337341 1705.744629,720.337341 1658.767212,720.337341 
	C1658.767212,591.510803 1658.767212,463.679260 1658.767212,334.910492 
	C1661.576050,334.717773 1664.427124,334.355103 1667.278687,334.351929 
	C1702.263184,334.312927 1737.249390,334.498718 1772.230957,334.176147 
	C1778.951294,334.114197 1782.935669,336.192383 1786.860596,341.756927 
	C1818.473877,386.576385 1850.466309,431.128448 1882.352905,475.755127 
	C1883.463989,477.310211 1884.679077,478.791199 1887.478638,479.987274 
	C1887.478638,431.717133 1887.478638,383.447021 1887.478638,334.759613 
	C1936.524292,334.759613 1984.380615,334.759613 2032.954712,334.759613 
	C2032.954712,462.935638 2032.954712,590.993408 2032.954712,719.695679 
	C1992.223511,719.695679 1951.418457,719.695679 1910.117920,719.695679 
	C1875.708008,671.263977 1841.087158,622.535339 1805.197754,572.021118 
	C1804.788818,576.203186 1804.369507,578.504456 1804.367432,580.806152 
	C1804.328369,624.453491 1804.398926,668.101135 1804.203857,711.747620 
	C1804.190796,714.664124 1807.206787,719.616760 1799.821289,720.330566 
z"/>
<path fill="#FFFFFF" opacity="1.000000" stroke="none" 
	d="
M3763.673828,568.176392 
	C3759.357178,520.584351 3760.246338,474.374481 3776.966064,429.748260 
	C3792.249023,388.956512 3821.304932,361.904205 3861.355225,346.020935 
	C3885.934326,336.273376 3911.481934,330.909027 3937.866211,329.706818 
	C3953.125977,329.011536 3968.433105,327.977142 3983.671875,328.492340 
	C4015.979492,329.584686 4047.689209,334.378693 4077.794922,347.052460 
	C4109.085449,360.224762 4134.347656,380.301941 4150.838379,410.470276 
	C4160.491699,428.130432 4166.674316,447.119904 4169.880371,466.837402 
	C4172.373047,482.166595 4173.021484,497.802795 4174.326660,513.316284 
	C4176.877441,543.644775 4173.583496,573.474915 4166.498535,602.977661 
	C4153.368164,657.654541 4119.451660,693.309875 4066.879395,711.855225 
	C4048.020264,718.507874 4028.512207,722.162598 4008.659668,724.373230 
	C3986.109619,726.884216 3963.506836,727.126221 3940.955566,725.550293 
	C3906.280273,723.127014 3872.682617,716.270935 3841.692871,699.364014 
	C3805.799561,679.781799 3783.328613,649.703308 3772.312012,610.904724 
	C3768.434326,597.247986 3766.504395,583.038269 3763.673828,568.176392 
M4026.324463,517.244263 
	C4024.716553,506.796387 4023.973145,496.121216 4021.300537,485.953217 
	C4017.150146,470.161560 4007.207764,459.119141 3990.881348,454.746704 
	C3979.190430,451.615692 3967.282471,450.891235 3955.367432,452.554016 
	C3934.712891,455.436401 3920.216797,466.243927 3914.888916,486.982941 
	C3907.998291,513.805908 3908.290527,540.907349 3914.843750,567.685486 
	C3918.912598,584.312256 3929.576660,595.504822 3946.654297,600.097717 
	C3957.796387,603.094299 3969.079346,602.921021 3980.292480,601.905212 
	C4002.024414,599.936279 4015.624268,588.402771 4021.695557,567.532837 
	C4026.292969,551.729919 4026.638916,535.478455 4026.324463,517.244263 
z"/>
<path fill="#FFFFFF" opacity="1.000000" stroke="none" 
	d="
M3428.000000,720.338196 
	C3399.095215,720.338196 3371.190186,720.338196 3342.811768,720.338196 
	C3342.811768,591.625122 3342.811768,463.794952 3342.811768,335.085541 
	C3345.097168,334.848236 3347.605713,334.361938 3350.114502,334.360321 
	C3414.415527,334.318420 3478.729248,333.569061 3543.012939,334.629486 
	C3578.027588,335.207062 3612.142334,342.085693 3643.613281,358.975952 
	C3680.908936,378.992340 3703.768311,410.290192 3716.093750,450.058777 
	C3726.172607,482.578827 3727.563721,516.030212 3726.021484,549.663330 
	C3724.954590,572.928711 3720.790283,595.670898 3712.568359,617.663025 
	C3696.774170,659.907593 3666.851318,687.697510 3625.517334,704.007080 
	C3596.117920,715.607361 3565.330322,719.975708 3533.946533,720.264465 
	C3498.967041,720.586365 3463.982422,720.338196 3428.000000,720.338196 
M3567.247070,474.052277 
	C3562.047607,465.808197 3554.661621,460.612396 3545.328613,457.894501 
	C3526.856445,452.515106 3508.041016,453.626190 3488.914551,453.857758 
	C3488.914551,506.051483 3488.914551,557.460571 3488.914551,609.463684 
	C3505.048584,610.020081 3520.522217,610.023315 3535.803223,606.309204 
	C3556.407471,601.301147 3569.414795,588.989197 3574.393066,567.969360 
	C3578.662109,549.945496 3578.898193,531.821472 3577.829834,513.540527 
	C3577.048096,500.167694 3574.642822,487.214966 3567.247070,474.052277 
z"/>
<path fill="#FFFFFF" opacity="1.000000" stroke="none" 
	d="
M2104.330322,340.653015 
	C2104.238037,336.859680 2104.473633,334.270355 2108.336914,334.342499 
	C2110.335205,334.379852 2112.335205,334.328064 2114.334473,334.328033 
	C2177.312256,334.326813 2240.302246,333.581879 2303.263184,334.606415 
	C2341.055420,335.221405 2377.758545,342.520691 2411.017334,362.204559 
	C2441.510254,380.251373 2461.746338,406.583221 2473.937988,439.451965 
	C2483.383545,464.917542 2486.925781,491.382477 2487.851318,518.439575 
	C2488.891846,548.867188 2486.535400,578.835693 2477.536865,607.962952 
	C2462.529297,656.540344 2429.925781,688.413330 2382.607666,705.699890 
	C2354.248291,716.060303 2324.743408,720.193726 2294.689941,720.284790 
	C2235.044922,720.465576 2175.398926,720.338196 2115.753174,720.338196 
	C2112.434814,720.338196 2109.116455,720.338196 2104.329102,720.338196 
	C2104.329102,593.811218 2104.329102,467.701416 2104.330322,340.653015 
M2300.318604,456.152008 
	C2283.975830,452.902039 2267.531250,453.455627 2250.962158,453.983551 
	C2250.962158,506.213226 2250.962158,557.592834 2250.962158,610.514771 
	C2265.502930,609.457092 2279.484375,609.508301 2293.070801,607.216492 
	C2317.068848,603.168579 2332.265625,589.126038 2336.719727,564.451111 
	C2341.066895,540.369995 2341.488770,516.324707 2336.117188,492.403931 
	C2331.937744,473.792114 2321.521729,460.667175 2300.318604,456.152008 
z"/>
<path fill="#FFFFFF" opacity="1.000000" stroke="none" 
	d="
M3275.177246,720.051025 
	C3225.008057,720.292847 3175.723633,720.292847 3125.821533,720.292847 
	C3119.749756,706.547546 3113.725098,692.922852 3107.712646,679.292664 
	C3101.147217,664.409241 3094.696777,649.474060 3087.999756,634.650085 
	C3083.198975,624.023926 3079.742188,622.134705 3066.470459,622.822083 
	C3066.157471,654.815491 3066.466797,686.923584 3066.287842,719.676636 
	C3017.834717,719.676636 2969.710205,719.676636 2920.955566,719.676636 
	C2920.955566,591.744873 2920.955566,463.667206 2920.955566,334.951233 
	C2923.209473,334.741028 2925.427734,334.354279 2927.645996,334.353333 
	C3001.608643,334.321808 3075.574463,333.940765 3149.531982,334.550964 
	C3173.225830,334.746429 3196.298828,339.996887 3217.421631,351.605591 
	C3243.870117,366.141235 3262.500000,387.809875 3272.945801,415.870056 
	C3286.146240,451.330505 3289.200928,487.509186 3276.095215,523.864075 
	C3267.398926,547.988281 3251.385986,566.937805 3232.425293,583.612671 
	C3227.952637,587.545898 3223.048340,590.988342 3218.016846,594.910461 
	C3236.291016,614.217773 3241.760986,640.122742 3253.041016,663.043152 
	C3261.236328,679.696289 3267.990479,697.061401 3275.261230,714.162598 
	C3275.979980,715.852722 3275.816162,717.918030 3275.177246,720.051025 
M3094.886230,508.353027 
	C3097.543457,508.352234 3100.213623,508.518005 3102.854492,508.310089 
	C3106.476562,508.024963 3110.126465,507.698456 3113.677734,506.968933 
	C3132.422852,503.118103 3138.776367,488.490173 3134.636719,468.838318 
	C3132.357422,458.018127 3125.975830,450.641418 3114.685791,449.751587 
	C3100.855713,448.661560 3086.934570,448.689514 3073.049805,448.365753 
	C3070.893799,448.315491 3068.721436,448.966156 3066.794678,449.256775 
	C3066.794678,469.147614 3066.794678,488.308380 3066.794678,508.353027 
	C3075.811768,508.353027 3084.370361,508.353027 3094.886230,508.353027 
z"/>
<path fill="#FFFFFF" opacity="1.000000" stroke="none" 
	d="
M1591.671509,346.333679 
	C1591.671509,419.287262 1591.885986,491.284088 1591.517700,563.277954 
	C1591.428101,580.802063 1589.812134,598.295044 1584.670166,615.355835 
	C1573.733276,651.644714 1550.853638,678.235535 1518.816406,697.311035 
	C1492.420044,713.027893 1463.419800,721.482605 1433.003906,724.110718 
	C1413.866699,725.764282 1394.439819,726.693054 1375.319214,725.379700 
	C1330.429443,722.296265 1288.324585,710.439209 1253.369019,680.097961 
	C1229.459106,659.344360 1213.842285,633.541931 1208.324219,602.286987 
	C1205.972168,588.964172 1204.570068,575.296936 1204.500732,561.777283 
	C1204.134033,490.116699 1204.328369,418.453278 1204.328369,346.790833 
	C1204.328369,343.147339 1204.328491,339.503845 1204.328491,335.986572 
	C1211.925049,333.894165 1329.854126,333.179077 1350.338745,335.106720 
	C1350.338745,338.460693 1350.338745,342.003204 1350.338745,345.545715 
	C1350.338745,412.875092 1350.141968,480.205658 1350.557373,547.532471 
	C1350.617676,557.290955 1352.604980,567.340088 1355.479126,576.709167 
	C1360.004639,591.461487 1371.532715,599.353210 1386.326904,601.579041 
	C1394.119629,602.751404 1402.369995,602.658020 1410.185425,601.539978 
	C1427.648560,599.041870 1440.250122,586.020264 1443.577148,567.701050 
	C1444.874146,560.559448 1445.558350,553.206604 1445.574341,545.947937 
	C1445.721924,479.285522 1445.661255,412.622681 1445.661255,345.959961 
	C1445.661255,342.383942 1445.661255,338.807892 1445.661255,334.784546 
	C1494.474976,334.784546 1542.346558,334.784546 1591.671509,334.784546 
	C1591.671509,338.347107 1591.671509,341.861481 1591.671509,346.333679 
z"/>
<path fill="#FFFFFF" opacity="1.000000" stroke="none" 
	d="
M2540.325684,687.993713 
	C2540.325684,569.769653 2540.325684,452.543945 2540.325684,334.827454 
	C2643.775635,334.827454 2746.234619,334.827454 2849.183838,334.827454 
	C2849.183838,369.551361 2849.183838,403.777527 2849.183838,439.452271 
	C2835.918945,439.932739 2822.411133,439.604736 2808.923096,439.663269 
	C2795.257812,439.722565 2781.592285,439.676361 2767.926758,439.676361 
	C2754.594482,439.676361 2741.262451,439.676361 2727.930176,439.676361 
	C2714.359131,439.676361 2700.788086,439.676361 2686.786621,439.676361 
	C2686.786621,450.823395 2686.786621,460.995209 2686.786621,472.146667 
	C2733.550537,472.146667 2780.023438,472.146667 2827.079590,472.146667 
	C2827.079590,508.915894 2827.079590,544.712769 2827.079590,581.469177 
	C2780.377686,581.469177 2733.890381,581.469177 2686.877441,581.469177 
	C2686.877441,592.954285 2686.877441,603.494263 2686.877441,615.524475 
	C2700.170410,615.810120 2713.681396,615.616150 2727.180664,615.650696 
	C2740.846191,615.685669 2754.511475,615.658447 2768.177002,615.658447 
	C2781.509033,615.658447 2794.841309,615.658447 2808.173340,615.658447 
	C2821.733154,615.658447 2835.292969,615.658447 2849.255859,615.658447 
	C2849.255859,650.880188 2849.255859,685.052917 2849.255859,719.783813 
	C2746.407715,719.783813 2643.925049,719.783813 2540.325684,719.783813 
	C2540.325684,709.441772 2540.325684,699.216858 2540.325684,687.993713 
z"/>
<path fill="#FFFEFE" opacity="1.000000" stroke="none" 
	d="
M398.100433,521.798218 
	C369.935059,528.505432 341.895416,535.812378 313.568756,541.750183 
	C285.570129,547.619385 257.430664,553.239746 229.089401,556.963440 
	C168.953522,564.864624 110.092232,559.397705 53.497574,536.146240 
	C52.266472,535.640442 51.029339,535.144409 49.825550,534.578796 
	C48.925285,534.155762 48.074253,533.627930 46.108360,532.544373 
	C46.108360,529.527649 46.050323,525.943909 46.116787,522.362549 
	C48.137402,413.486328 81.795601,315.526367 149.239059,229.961563 
	C219.356598,141.004166 309.956970,83.226906 420.350098,57.187180 
	C472.321014,44.928200 524.954407,41.848213 578.152039,47.436607 
	C674.293823,57.536259 759.950500,93.054306 834.338257,154.486603 
	C923.371887,228.014130 979.820740,321.699249 1002.193054,435.196869 
	C1035.523193,604.285034 975.925415,776.006836 847.072876,889.505066 
	C790.125610,939.666321 724.869324,974.603088 650.510132,993.024963 
	C647.618530,959.591919 645.799133,927.025940 643.382019,894.504517 
	C642.851868,887.370972 644.582703,881.796265 648.436340,875.988281 
	C671.641907,841.014526 692.657288,804.798279 709.052734,766.062927 
	C721.292908,737.144897 730.369202,707.335938 733.616028,675.964478 
	C738.083618,632.797363 723.662903,594.799316 701.427368,558.964478 
	C699.773499,543.801819 698.119568,528.639221 696.598328,511.844604 
	C697.132996,506.915283 697.404297,503.595734 697.958557,500.324158 
	C701.290405,480.659119 704.532471,460.976715 708.130737,441.359955 
	C709.803345,432.241211 714.486694,424.958618 722.041809,419.081360 
	C737.815491,406.810669 753.214600,394.052063 768.610229,381.303741 
	C787.597229,365.581665 806.400879,349.638428 825.335999,333.853394 
	C830.110107,329.873474 833.266113,325.040619 834.748413,318.972290 
	C838.139221,305.090729 842.146179,291.340393 844.975403,277.349243 
	C846.339355,270.604065 846.240295,263.384308 845.688660,256.468384 
	C844.600769,242.829391 838.592712,237.296692 824.946594,237.814316 
	C814.000916,238.229523 803.111206,240.005142 792.184082,241.045135 
	C768.343750,243.314163 744.508667,245.658737 720.644348,247.647217 
	C709.680725,248.560745 700.638672,244.473587 693.247131,236.059677 
	C686.884277,228.816666 680.004578,221.995010 673.012817,215.345215 
	C663.961121,206.736252 653.039612,202.800507 640.459534,202.223602 
	C619.177734,201.247711 597.915649,199.718597 576.671692,198.078751 
	C558.570312,196.681488 547.166748,186.195221 541.709106,168.912170 
	C537.219421,154.694290 531.628662,140.766174 525.602234,127.117470 
	C522.839050,120.859306 518.185486,115.311691 513.775146,109.946655 
	C510.609741,106.096077 506.379272,103.200516 500.747620,104.393890 
	C500.059540,105.363312 499.169861,106.089417 498.987274,106.963257 
	C498.091644,111.249405 495.039001,113.100998 491.194031,113.472023 
	C486.714386,113.904289 485.001862,110.252396 483.257324,107.011940 
	C481.207306,103.204002 479.769226,98.937225 477.135010,95.605331 
	C473.701935,91.263023 469.980255,86.499847 465.282135,83.929344 
	C451.583740,76.434410 440.715546,83.337669 440.303589,98.835892 
	C439.763794,119.144119 439.411499,139.471466 438.191162,159.743195 
	C437.132782,177.323914 436.783691,195.242889 432.964539,212.305832 
	C421.986053,261.354401 411.968811,310.502563 405.477936,360.384216 
	C398.499207,414.015167 395.537445,467.763641 398.100433,521.798218 
z"/>
<path fill="#FFFFFF" opacity="1.000000" stroke="none" 
	d="
M700.623230,559.214722 
	C723.662903,594.799316 738.083618,632.797363 733.616028,675.964478 
	C730.369202,707.335938 721.292908,737.144897 709.052734,766.062927 
	C692.657288,804.798279 671.641907,841.014526 648.436340,875.988281 
	C644.582703,881.796265 642.851868,887.370972 643.382019,894.504517 
	C645.799133,927.025940 647.618530,959.591919 649.720154,992.997803 
	C634.908386,997.203430 620.139282,1001.194397 605.127319,1003.769653 
	C573.546021,1009.187134 541.643005,1011.138916 509.629517,1009.620361 
	C407.615082,1004.781372 315.717377,971.998474 234.784973,908.359741 
	C279.598389,830.009277 324.346985,752.744995 369.047363,675.452759 
	C375.854340,663.682678 382.437378,651.783142 389.123962,639.943420 
	C410.898193,617.211609 436.382629,600.250000 466.202240,589.827209 
	C494.361847,579.984741 523.463257,574.644165 553.028198,572.080933 
	C583.872253,569.406799 614.807190,567.783997 645.700073,565.667297 
	C650.013855,565.371704 654.314270,564.880554 659.168335,565.166382 
	C642.205261,585.175720 624.694641,604.498535 606.103943,625.013245 
	C624.552002,627.020447 640.945496,628.804077 658.207764,630.682251 
	C654.303406,643.629517 650.589661,655.996277 646.845276,668.353638 
	C617.137146,766.398315 587.403015,864.435120 557.799500,962.511414 
	C556.820435,965.755066 557.147888,969.393066 556.763672,972.899780 
	C556.661011,972.952209 556.767212,972.623474 556.767212,972.623474 
	C556.767212,972.623474 556.518372,972.998108 556.815247,972.373535 
	C564.529297,963.193359 572.533691,955.073669 579.264526,946.008423 
	C613.015686,900.551697 645.576355,854.280518 672.439148,804.288391 
	C689.969421,771.664185 704.456116,737.888489 713.013306,701.638123 
	C721.926575,663.879272 718.874268,627.662903 701.326111,592.934570 
	C696.078979,582.550415 690.234802,572.467957 684.664185,562.247253 
	C689.715820,561.319824 694.767456,560.392395 700.623230,559.214722 
z"/>
<path fill="#FFFFFF" opacity="1.000000" stroke="none" 
	d="
M398.902954,521.818176 
	C395.537445,467.763641 398.499207,414.015167 405.477936,360.384216 
	C411.968811,310.502563 421.986053,261.354401 432.964539,212.305832 
	C436.783691,195.242889 437.132782,177.323914 438.191162,159.743195 
	C439.411499,139.471466 439.763794,119.144119 440.303589,98.835892 
	C440.715546,83.337669 451.583740,76.434410 465.282135,83.929344 
	C469.980255,86.499847 473.701935,91.263023 477.135010,95.605331 
	C479.769226,98.937225 481.207306,103.204002 483.257324,107.011940 
	C485.001862,110.252396 486.714386,113.904289 491.194031,113.472023 
	C495.039001,113.100998 498.091644,111.249405 498.987274,106.963257 
	C499.169861,106.089417 500.059540,105.363312 500.747620,104.393890 
	C506.379272,103.200516 510.609741,106.096077 513.775146,109.946655 
	C518.185486,115.311691 522.839050,120.859306 525.602234,127.117470 
	C531.628662,140.766174 537.219421,154.694290 541.709106,168.912170 
	C547.166748,186.195221 558.570312,196.681488 576.671692,198.078751 
	C597.915649,199.718597 619.177734,201.247711 640.459534,202.223602 
	C653.039612,202.800507 663.961121,206.736252 673.012817,215.345215 
	C680.004578,221.995010 686.884277,228.816666 693.247131,236.059677 
	C700.638672,244.473587 709.680725,248.560745 720.644348,247.647217 
	C744.508667,245.658737 768.343750,243.314163 792.184082,241.045135 
	C803.111206,240.005142 814.000916,238.229523 824.946594,237.814316 
	C838.592712,237.296692 844.600769,242.829391 845.688660,256.468384 
	C846.240295,263.384308 846.339355,270.604065 844.975403,277.349243 
	C842.146179,291.340393 838.139221,305.090729 834.748413,318.972290 
	C833.266113,325.040619 830.110107,329.873474 825.335999,333.853394 
	C806.400879,349.638428 787.597229,365.581665 768.610229,381.303741 
	C753.214600,394.052063 737.815491,406.810669 722.041809,419.081360 
	C714.486694,424.958618 709.803345,432.241211 708.130737,441.359955 
	C704.532471,460.976715 701.290405,480.659119 697.958557,500.324158 
	C697.404297,503.595734 697.132996,506.915283 696.446655,510.943054 
	C690.626404,514.613281 684.804016,517.131287 679.647949,520.630920 
	C675.753601,523.274170 672.615967,524.216003 667.835022,522.702881 
	C618.738098,507.164398 568.320557,501.625397 517.031555,504.413177 
	C478.751129,506.493866 441.015991,512.783081 403.640259,521.238831 
	C402.349518,521.530823 401.017975,521.642456 398.902954,521.818176 
z"/>
<path fill="#FEFEFD" opacity="1.000000" stroke="none" 
	d="
M388.390747,640.072754 
	C382.437378,651.783142 375.854340,663.682678 369.047363,675.452759 
	C324.346985,752.744995 279.598389,830.009277 234.410828,907.822876 
	C212.887451,893.532410 194.414810,875.780396 176.846008,857.080322 
	C143.313019,821.388367 115.806885,781.497498 94.428101,737.413696 
	C92.723129,733.897888 91.187981,730.299805 88.839607,725.120422 
	C96.072540,726.274048 101.567917,727.058960 107.028870,728.036255 
	C144.390839,734.722778 181.304306,731.191040 218.029068,723.240417 
	C277.297028,710.409485 330.711212,685.280273 377.964752,647.174133 
	C381.058136,644.679565 384.420410,642.518433 388.390747,640.072754 
z"/>
<path fill="#FCFCFC" opacity="1.000000" stroke="none" 
	d="
M683.890503,562.183472 
	C690.234802,572.467957 696.078979,582.550415 701.326111,592.934570 
	C718.874268,627.662903 721.926575,663.879272 713.013306,701.638123 
	C704.456116,737.888489 689.969421,771.664185 672.439148,804.288391 
	C645.576355,854.280518 613.015686,900.551697 579.264526,946.008423 
	C572.533691,955.073669 564.529297,963.193359 556.882202,972.289551 
	C556.652222,972.830139 556.866333,972.847290 556.866333,972.847290 
	C557.147888,969.393066 556.820435,965.755066 557.799500,962.511414 
	C587.403015,864.435120 617.137146,766.398315 646.845276,668.353638 
	C650.589661,655.996277 654.303406,643.629517 658.207764,630.682251 
	C640.945496,628.804077 624.552002,627.020447 606.103943,625.013245 
	C624.694641,604.498535 642.205261,585.175720 660.039124,565.299194 
	C667.947266,563.870239 675.532043,562.994934 683.890503,562.183472 
z"/>
<path fill="#FDFDFD" opacity="1.000000" stroke="none" 
	d="
M4026.331299,518.214172 
	C4026.638916,535.478455 4026.292969,551.729919 4021.695557,567.532837 
	C4015.624268,588.402771 4002.024414,599.936279 3980.292480,601.905212 
	C3969.079346,602.921021 3957.796387,603.094299 3946.654297,600.097717 
	C3929.576660,595.504822 3918.912598,584.312256 3914.843750,567.685486 
	C3908.290527,540.907349 3907.998291,513.805908 3914.888916,486.982941 
	C3920.216797,466.243927 3934.712891,455.436401 3955.367432,452.554016 
	C3967.282471,450.891235 3979.190430,451.615692 3990.881348,454.746704 
	C4007.207764,459.119141 4017.150146,470.161560 4021.300537,485.953217 
	C4023.973145,496.121216 4024.716553,506.796387 4026.331299,518.214172 
z"/>
<path fill="#FCFCFC" opacity="1.000000" stroke="none" 
	d="
M3567.597412,474.712677 
	C3574.642822,487.214966 3577.048096,500.167694 3577.829834,513.540527 
	C3578.898193,531.821472 3578.662109,549.945496 3574.393066,567.969360 
	C3569.414795,588.989197 3556.407471,601.301147 3535.803223,606.309204 
	C3520.522217,610.023315 3505.048584,610.020081 3488.914551,609.463684 
	C3488.914551,557.460571 3488.914551,506.051483 3488.914551,453.857758 
	C3508.041016,453.626190 3526.856445,452.515106 3545.328613,457.894501 
	C3554.661621,460.612396 3562.047607,465.808197 3567.597412,474.712677 
z"/>
<path fill="#FCFCFC" opacity="1.000000" stroke="none" 
	d="
M2301.138672,456.304871 
	C2321.521729,460.667175 2331.937744,473.792114 2336.117188,492.403931 
	C2341.488770,516.324707 2341.066895,540.369995 2336.719727,564.451111 
	C2332.265625,589.126038 2317.068848,603.168579 2293.070801,607.216492 
	C2279.484375,609.508301 2265.502930,609.457092 2250.962158,610.514771 
	C2250.962158,557.592834 2250.962158,506.213226 2250.962158,453.983551 
	C2267.531250,453.455627 2283.975830,452.902039 2301.138672,456.304871 
z"/>
<path fill="#FAFAFA" opacity="1.000000" stroke="none" 
	d="
M3093.907715,508.353027 
	C3084.370361,508.353027 3075.811768,508.353027 3066.794678,508.353027 
	C3066.794678,488.308380 3066.794678,469.147614 3066.794678,449.256775 
	C3068.721436,448.966156 3070.893799,448.315491 3073.049805,448.365753 
	C3086.934570,448.689514 3100.855713,448.661560 3114.685791,449.751587 
	C3125.975830,450.641418 3132.357422,458.018127 3134.636719,468.838318 
	C3138.776367,488.490173 3132.422852,503.118103 3113.677734,506.968933 
	C3110.126465,507.698456 3106.476562,508.024963 3102.854492,508.310089 
	C3100.213623,508.518005 3097.543457,508.352234 3093.907715,508.353027 
z"/>
<path fill="#FCFCFC" opacity="1.000000" stroke="none" 
	d="
M556.585327,972.914124 
	C556.518372,972.998108 556.767212,972.623474 556.767212,972.623474 
	C556.767212,972.623474 556.661011,972.952209 556.763672,972.899780 
	C556.866333,972.847290 556.652222,972.830139 556.585327,972.914124 
z"/>
</svg>